<svg width="64" height="34" viewBox="0 0 64 34" fill="none" xmlns="http://www.w3.org/2000/svg">
<path d="M7.78429 0.642578H0.680102L9.25587 15.2779C9.99166 16.5445 10.017 17.7582 9.25587 19.0247L0.578613 33.6426H7.6828L17.6033 17.1074L7.78429 0.642578Z" fill="#FF9EFC"/>
<path d="M23.1085 0.642578H16.0043L24.5801 15.2779C25.3159 16.5445 25.3413 17.7582 24.5801 19.0247L15.9028 33.6426H23.007L32.9275 17.1074L23.1085 0.642578Z" fill="#FF9EFC"/>
<path d="M38.4344 0.642578H31.3302L39.906 15.2779C40.6418 16.5445 40.6672 17.7582 39.906 19.0247L31.2288 33.6426H38.333L48.2534 17.1074L38.4344 0.642578Z" fill="#FF9EFC"/>
<path d="M53.7609 0.642578H46.6567L55.2324 15.2779C55.9682 16.5445 55.9936 17.7582 55.2324 19.0247L46.5552 33.6426H53.6594L63.5799 17.1074L53.7609 0.642578Z" fill="#FF9EFC"/>
</svg>
