<svg width="479" height="381" viewBox="0 0 479 381" fill="none" xmlns="http://www.w3.org/2000/svg">
<g filter="url(#filter0_b_5017_758)">
<path d="M1 137.818L1.00102 109.103V53.3371L91.8745 15.6231H216.966L238.618 1.00003L299.984 1L366.868 48.2645H412.76L477.999 88.4855L478 342.205L422.158 379.919H76.1241L20.2817 342.205V297.918L1.00102 274.259L1 137.818Z" fill="#3A3A3A" fill-opacity="0.2"/>
<path d="M1 137.818L1.00102 109.103V53.3371L91.8745 15.6231H216.966L238.618 1.00003L299.984 1L366.868 48.2645H412.76L477.999 88.4855L478 342.205L422.158 379.919H76.1241L20.2817 342.205V297.918L1.00102 274.259L1 137.818Z" stroke="url(#paint0_linear_5017_758)" stroke-width="2" stroke-linejoin="round"/>
</g>
<defs>
<filter id="filter0_b_5017_758" x="-8" y="-8" width="495" height="396.919" filterUnits="userSpaceOnUse" color-interpolation-filters="sRGB">
<feFlood flood-opacity="0" result="BackgroundImageFix"/>
<feGaussianBlur in="BackgroundImageFix" stdDeviation="4"/>
<feComposite in2="SourceAlpha" operator="in" result="effect1_backgroundBlur_5017_758"/>
<feBlend mode="normal" in="SourceGraphic" in2="effect1_backgroundBlur_5017_758" result="shape"/>
</filter>
<linearGradient id="paint0_linear_5017_758" x1="471.516" y1="84.4589" x2="214.194" y2="509.793" gradientUnits="userSpaceOnUse">
<stop stop-color="white" stop-opacity="0.58"/>
<stop offset="0.25" stop-color="#AD00FF" stop-opacity="0"/>
<stop offset="0.5" stop-color="#AD00FF" stop-opacity="0"/>
<stop offset="0.75" stop-color="white" stop-opacity="0.31"/>
<stop offset="1" stop-color="white" stop-opacity="0.4"/>
</linearGradient>
</defs>
</svg>
