<svg width="479" height="556" viewBox="0 0 479 556" fill="none" xmlns="http://www.w3.org/2000/svg">
<g filter="url(#filter0_b_5021_764)">
<path d="M1 154.145L1.00102 122.004V59.5829L91.7793 17.3682H216.739L238.369 1.00003L299.671 1L366.484 53.9049H412.329L477.499 98.9257L477.5 512.077L421.716 554.291H76.0454L20.2614 512.077V462.505L1.00102 436.022L1 154.145Z" fill="#3A3A3A" fill-opacity="0.2"/>
<path d="M1 154.145L1.00102 122.004V59.5829L91.7793 17.3682H216.739L238.369 1.00003L299.671 1L366.484 53.9049H412.329L477.499 98.9257L477.5 512.077L421.716 554.291H76.0454L20.2614 512.077V462.505L1.00102 436.022L1 154.145Z" stroke="url(#paint0_linear_5021_764)" stroke-width="2" stroke-linejoin="round"/>
</g>
<defs>
<filter id="filter0_b_5021_764" x="-8" y="-8" width="494.5" height="571.291" filterUnits="userSpaceOnUse" color-interpolation-filters="sRGB">
<feFlood flood-opacity="0" result="BackgroundImageFix"/>
<feGaussianBlur in="BackgroundImageFix" stdDeviation="4"/>
<feComposite in2="SourceAlpha" operator="in" result="effect1_backgroundBlur_5021_764"/>
<feBlend mode="normal" in="SourceGraphic" in2="effect1_backgroundBlur_5021_764" result="shape"/>
</filter>
<linearGradient id="paint0_linear_5021_764" x1="576.615" y1="304.991" x2="252.771" y2="713.939" gradientUnits="userSpaceOnUse">
<stop stop-color="white" stop-opacity="0.58"/>
<stop offset="0.25" stop-color="#AD00FF" stop-opacity="0"/>
<stop offset="0.5" stop-color="#AD00FF" stop-opacity="0"/>
<stop offset="0.75" stop-color="white" stop-opacity="0.31"/>
<stop offset="1" stop-color="white" stop-opacity="0.4"/>
</linearGradient>
</defs>
</svg>
