<svg xmlns="http://www.w3.org/2000/svg" width="41" height="40" viewBox="0 0 41 40" fill="none">
  <path d="M27.4734 17.9749L15.3962 10.0854C15.2743 10.0084 15.132 9.9823 14.9946 10.0119C14.8571 10.0414 14.7336 10.1247 14.646 10.2469C14.5584 10.369 14.5124 10.522 14.5163 10.6786C14.5203 10.8351 14.5738 10.985 14.6674 11.1014L20.7632 18.4691C21.1069 18.8854 21.2978 19.4314 21.2978 19.9983C21.2978 20.5651 21.1069 21.1111 20.7632 21.5274L14.6674 28.8986C14.5738 29.015 14.5203 29.1649 14.5163 29.3214C14.5124 29.478 14.5584 29.631 14.646 29.7531C14.7336 29.8753 14.8571 29.9586 14.9946 29.9881C15.132 30.0177 15.2743 29.9916 15.3962 29.9146L27.4734 22.0078C27.7903 21.804 28.0536 21.5102 28.2367 21.1562C28.4197 20.8022 28.5161 20.4004 28.5161 19.9914C28.5161 19.5823 28.4197 19.1805 28.2367 18.8265C28.0536 18.4725 27.7903 18.1787 27.4734 17.9749Z" fill="white"/>
</svg>