<svg xmlns="http://www.w3.org/2000/svg" width="41" height="40" viewBox="0 0 41 40" fill="none">
  <path d="M13.5588 17.9749L25.6361 10.0854C25.7579 10.0084 25.9002 9.9823 26.0377 10.0119C26.1751 10.0414 26.2987 10.1247 26.3863 10.2469C26.4739 10.369 26.5198 10.522 26.5159 10.6786C26.512 10.8351 26.4584 10.985 26.3648 11.1014L20.2691 18.4691C19.9253 18.8854 19.7344 19.4314 19.7344 19.9983C19.7344 20.5651 19.9253 21.1111 20.2691 21.5274L26.3648 28.8986C26.4584 29.015 26.512 29.1649 26.5159 29.3214C26.5198 29.478 26.4739 29.631 26.3863 29.7531C26.2987 29.8753 26.1751 29.9586 26.0377 29.9881C25.9002 30.0177 25.7579 29.9916 25.6361 29.9146L13.5588 22.0078C13.2419 21.804 12.9786 21.5102 12.7956 21.1562C12.6125 20.8022 12.5161 20.4004 12.5161 19.9914C12.5161 19.5823 12.6125 19.1805 12.7956 18.8265C12.9786 18.4725 13.2419 18.1787 13.5588 17.9749Z" fill="white"/>
</svg>