<svg xmlns="http://www.w3.org/2000/svg" width="100" height="129" viewBox="0 0 100 129" fill="#3030FC">
  <g opacity="0.8" filter="url(#filter0_b_4730_2630)">
    <path d="M98.6626 12.7917V83.8276C98.6626 86.8005 97.4784 89.6517 95.3704 91.7539C93.2625 93.856 90.4034 95.037 87.4223 95.037H50.6988C48.8718 95.037 47.1196 95.7608 45.8277 97.0491C44.5358 98.3375 43.8101 100.085 43.8101 101.907V124.646C43.8404 125.285 43.6779 125.919 43.3434 126.466C43.0089 127.012 42.5179 127.446 41.9337 127.712C41.3494 127.977 40.6989 128.062 40.0659 127.955C39.433 127.848 38.8466 127.555 38.3827 127.112L5.85007 95.0851C4.46809 93.8905 3.35779 92.4153 2.59348 90.7584C1.82919 89.1014 1.4285 87.3008 1.41818 85.477V12.7917C1.41818 9.8188 2.60249 6.96764 4.71044 4.86546C6.81841 2.76328 9.67735 1.58229 12.6585 1.58229H87.4063C88.8837 1.58018 90.3471 1.86857 91.7127 2.43095C93.0783 2.99334 94.3193 3.81869 95.3647 4.85979C96.4102 5.90089 97.2395 7.13732 97.8054 8.49836C98.3713 9.8594 98.6626 11.3183 98.6626 12.7917Z" fill="url(#paint0_linear_4730_2630)" fill-opacity="0.7"/>
    <path d="M98.6626 12.7917V83.8276C98.6626 86.8005 97.4784 89.6517 95.3704 91.7539C93.2625 93.856 90.4034 95.037 87.4223 95.037H50.6988C48.8718 95.037 47.1196 95.7608 45.8277 97.0491C44.5358 98.3375 43.8101 100.085 43.8101 101.907V124.646C43.8404 125.285 43.6779 125.919 43.3434 126.466C43.0089 127.012 42.5179 127.446 41.9337 127.712C41.3494 127.977 40.6989 128.062 40.0659 127.955C39.433 127.848 38.8466 127.555 38.3827 127.112L5.85007 95.0851C4.46809 93.8905 3.35779 92.4153 2.59348 90.7584C1.82919 89.1014 1.4285 87.3008 1.41818 85.477V12.7917C1.41818 9.8188 2.60249 6.96764 4.71044 4.86546C6.81841 2.76328 9.67735 1.58229 12.6585 1.58229H87.4063C88.8837 1.58018 90.3471 1.86857 91.7127 2.43095C93.0783 2.99334 94.3193 3.81869 95.3647 4.85979C96.4102 5.90089 97.2395 7.13732 97.8054 8.49836C98.3713 9.8594 98.6626 11.3183 98.6626 12.7917Z" stroke="#3030FC" stroke-width="1.62074" stroke-miterlimit="10"/>
  </g>
  <defs>
    <filter id="filter0_b_4730_2630" x="-2.63357" y="-2.46951" width="105.348" height="134.521" filterUnits="userSpaceOnUse" color-interpolation-filters="sRGB">
      <feFlood flood-opacity="0" result="BackgroundImageFix"/>
      <feGaussianBlur in="BackgroundImageFix" stdDeviation="1.62074"/>
      <feComposite in2="SourceAlpha" operator="in" result="effect1_backgroundBlur_4730_2630"/>
      <feBlend mode="normal" in="SourceGraphic" in2="effect1_backgroundBlur_4730_2630" result="shape"/>
    </filter>
    <linearGradient id="paint0_linear_4730_2630" x1="50.0404" y1="1.58228" x2="50.0404" y2="128" gradientUnits="userSpaceOnUse">
      <stop stop-color="#0D0FA8"/>
      <stop offset="1" stop-color="#0D0FA8" stop-opacity="0.2"/>
    </linearGradient>
  </defs>
</svg>