<svg xmlns="http://www.w3.org/2000/svg" width="155" height="64" viewBox="0 0 155 64" fill="none">
  <path fill-rule="evenodd" clip-rule="evenodd" d="M26.154 14.1022C22.4458 21.365 19.4114 27.418 19.4114 27.5531C19.4114 27.6887 20.2017 27.4466 21.1673 27.0151C22.1329 26.584 22.9859 26.2939 23.0632 26.371C23.1405 26.4476 22.4416 28.0223 21.5105 29.8698L19.8178 33.2284H21.8952H23.9727L22.8521 35.5082L21.7311 37.7879H19.7176H17.7041L14.9901 43.365C13.4973 46.4323 12.3966 49.1369 12.5441 49.3753C12.6916 49.6136 13.6427 49.8084 14.6577 49.8084C15.6728 49.8084 16.503 49.9079 16.503 50.0294C16.503 50.1512 16.0322 51.1771 15.4572 52.3091L14.4114 54.3679H11.0671C9.22808 54.3679 7.36999 54.1793 6.93829 53.9489C6.23569 53.5737 5.87588 54.0736 3.50549 58.7156L0.857544 63.9014H19.2514H37.6454L41.1517 57.1658C43.0804 53.4614 46.1501 47.4922 47.9737 43.9018L51.2885 37.3734H49.2409H47.193L43.1702 45.6527L39.1474 53.9319L34.2653 53.9426C31.58 53.9485 29.3833 53.7839 29.3833 53.5762C29.3833 53.369 32.7621 46.3275 36.8921 37.9289C41.0217 29.5303 45.2713 20.844 46.335 18.6264L48.2695 14.5938L55.674 14.4814L63.079 14.3687L66.5795 7.63308L70.08 0.897461H51.4888H32.8971L26.154 14.1022ZM72.0632 7.73671L68.5971 14.576H77.7106H86.824L83.9683 17.4973C82.3973 19.1039 81.0499 20.5961 80.9739 20.8133C80.8924 21.0442 77.5922 21.2079 73.0109 21.2079H65.1868L62.8488 25.7674L60.5112 30.3269H66.1719C69.5814 30.3269 71.7777 30.484 71.6942 30.722C71.6182 30.9396 70.176 32.525 68.4899 34.2452L65.4236 37.3734H61.181H56.9384L50.1966 50.6374L43.4552 63.9014H61.899H80.3427L85.1699 54.4716L89.9967 45.0417L81.192 45.1847L72.3868 45.3277L68.6474 49.6219L64.908 53.9161L60.0504 53.9348C57.3788 53.9451 55.1031 53.8088 54.9939 53.6318C54.8842 53.4552 55.2619 52.8616 55.8332 52.3133C56.4045 51.7645 64.4592 43.0492 73.7326 32.9457L90.5934 14.576H96.1971H101.801L101.562 18.5663C101.432 20.7615 101.47 22.3934 101.648 22.1932C102.03 21.7646 112.482 1.4276 112.482 1.11259C112.482 0.994038 104.168 0.897461 94.0058 0.897461H75.5292L72.0632 7.73671ZM112.242 12.1926C109.109 18.4051 105.284 25.9183 103.745 28.8895L100.945 34.2912L100.679 41.3244C100.534 45.1926 100.311 49.5174 100.184 50.9346L99.954 53.5116L95.5714 53.6289L91.1892 53.7462L88.5113 58.8238L85.8335 63.9014H104.349H122.864L125.971 57.7125L129.078 51.5236L126.121 52.5271C121.927 53.9505 116.886 54.5043 113.015 53.9671C105.129 52.8728 101.264 49.0781 101.264 42.4295C101.264 30.2784 111.408 18.0789 124.397 14.6095C132.291 12.5005 140.774 13.7113 144.712 17.509L145.988 18.7392L150.425 10.0666C152.865 5.29655 154.862 1.28212 154.862 1.14533C154.862 1.00896 146.555 0.897461 136.402 0.897461H117.941L112.242 12.1926ZM126.922 21.2428C124.675 21.7713 120.858 23.799 118.842 25.5345C117.884 26.3594 116.28 28.288 115.278 29.8204C109.527 38.6115 110.113 45.7169 116.691 46.9169C121.117 47.7243 126.187 45.7041 129.912 41.649C132.145 39.2175 132.376 39.0758 133.752 39.2984L135.215 39.5351L138.391 33.4825C140.137 30.1537 141.567 27.3168 141.567 27.1788C141.567 27.0404 140.742 26.9931 139.733 27.0731L137.9 27.2182L137.646 25.6348C137.507 24.7635 137.105 23.6137 136.754 23.079C135.459 21.1072 131.022 20.2786 126.922 21.2428ZM52.8587 25.7674L50.5664 30.3269H52.7515H54.9361L57.1175 26.0253C58.317 23.6597 59.2988 21.6079 59.2988 21.4658C59.2988 21.324 58.3656 21.2079 57.2247 21.2079H55.1509L52.8587 25.7674ZM85.1005 30.7464L77.9295 38.2024H84.5916H91.254L91.4605 36.8553C91.6608 35.5488 92.4269 23.5876 92.3231 23.389C92.2948 23.3347 89.0444 26.6458 85.1005 30.7464ZM28.5523 47.5216C28.5523 47.6319 27.8567 49.1241 27.0071 50.8376L25.4614 53.9534H21.3933H17.3248L18.9959 50.6374L20.667 47.3214H24.6097C26.7781 47.3214 28.5523 47.4118 28.5523 47.5216Z" fill="white" fill-opacity="0.76"/>
</svg>