<svg xmlns="http://www.w3.org/2000/svg" width="826" height="59" viewBox="0 0 826 59" fill="none">
  <mask id="path-1-outside-1_4730_2618" maskUnits="userSpaceOnUse" x="0.516113" y="0.457031" width="826" height="59" fill="black">
    <rect fill="white" x="0.516113" y="0.457031" width="826" height="59"/>
    <path d="M2.51611 13.557V3.65703H51.1761L48.1761 13.557H30.7761V50.217H19.6761V13.557H2.51611Z"/>
    <path d="M63.6552 26.937C63.6552 37.257 68.9952 41.157 79.7352 41.157C90.1152 41.157 95.5152 36.957 95.5152 26.937C95.5152 16.917 90.1152 12.717 79.7352 12.717C68.9952 12.717 63.6552 16.617 63.6552 26.937ZM107.215 26.937C107.215 43.797 94.5552 51.237 79.1952 51.237C64.3152 51.237 51.9552 43.377 51.9552 26.937C51.9552 10.497 64.3152 2.63703 79.1952 2.63703C94.5552 2.63703 107.215 10.017 107.215 26.937Z"/>
    <path d="M147.357 3.65703H158.457V50.217H147.357L122.997 19.497V50.217H111.897V5.45703L122.997 2.45703L147.357 33.177V3.65703Z"/>
    <path d="M212.684 26.457V50.217H182.804C169.544 50.217 163.124 38.877 163.124 27.357C163.124 15.597 169.844 3.65703 182.804 3.65703H209.684L212.684 13.557H184.124C177.824 13.557 174.824 20.037 174.824 26.637C174.824 33.417 178.004 40.317 184.124 40.317H201.584V29.457L212.684 26.457Z"/>
    <path d="M247.848 26.937C247.848 36.777 252.768 40.797 262.548 41.157L257.268 32.217H269.148L273.648 39.237C277.668 37.077 279.708 33.117 279.708 26.937C279.708 16.917 274.308 12.717 263.928 12.717C253.188 12.717 247.848 16.617 247.848 26.937ZM291.408 26.937C291.408 37.377 286.548 44.217 279.228 47.877L284.928 56.817H271.848L268.368 50.937C266.748 51.117 265.068 51.237 263.388 51.237C248.508 51.237 236.148 43.377 236.148 26.937C236.148 10.497 248.508 2.63703 263.388 2.63703C278.748 2.63703 291.408 10.017 291.408 26.937Z"/>
    <path d="M333.65 31.737V3.65703H344.75V31.737C344.75 45.297 333.65 51.237 319.31 51.237C305.39 51.237 294.65 44.877 294.65 31.737V5.45703L305.75 2.45703V31.737C305.75 38.577 310.31 41.157 319.85 41.157C329.09 41.157 333.65 38.397 333.65 31.737Z"/>
    <path d="M365.661 43.977L369.741 34.497H382.761L373.641 15.177L357.441 50.217H345.741L367.881 5.45703L378.981 2.45703L401.901 50.217H390.201L387.261 43.977H365.661Z"/>
    <path d="M439.848 3.65703H450.948V50.217H439.848L415.488 19.497V50.217H404.388V5.45703L415.488 2.45703L439.848 33.177V3.65703Z"/>
    <path d="M494.492 3.65703H524.372L521.372 13.557H495.812C489.692 13.557 486.512 20.457 486.512 27.237C486.512 33.837 489.512 40.317 495.812 40.317H524.372L521.372 50.217H494.492C481.532 50.217 474.812 38.277 474.812 26.517C474.812 14.997 481.232 3.65703 494.492 3.65703Z"/>
    <path d="M565.869 31.737V3.65703H576.969V31.737C576.969 45.297 565.869 51.237 551.529 51.237C537.609 51.237 526.869 44.877 526.869 31.737V5.45703L537.969 2.45703V31.737C537.969 38.577 542.529 41.157 552.069 41.157C561.309 41.157 565.869 38.397 565.869 31.737Z"/>
    <path d="M591.88 26.937C591.88 37.257 597.22 41.157 607.96 41.157C618.34 41.157 623.74 36.957 623.74 26.937C623.74 16.917 618.34 12.717 607.96 12.717C597.22 12.717 591.88 16.617 591.88 26.937ZM635.44 26.937C635.44 43.797 622.78 51.237 607.42 51.237C592.54 51.237 580.18 43.377 580.18 26.937C580.18 10.497 592.54 2.63703 607.42 2.63703C622.78 2.63703 635.44 10.017 635.44 26.937Z"/>
    <path d="M656.382 3.65703H686.262L683.262 13.557H657.702C651.582 13.557 648.402 20.457 648.402 27.237C648.402 33.837 651.402 40.317 657.702 40.317H686.262L683.262 50.217H656.382C643.422 50.217 636.702 38.277 636.702 26.517C636.702 14.997 643.122 3.65703 656.382 3.65703Z"/>
    <path d="M705.676 13.557V3.65703H754.336L751.336 13.557H733.936V50.217H722.836V13.557H705.676Z"/>
    <path d="M758.535 5.45703L769.635 2.45703V23.217H793.995V3.65703H805.095V50.217H793.995V33.117H769.635V50.217H758.535V5.45703Z"/>
    <path d="M813.182 3.65703H824.282V50.217H813.182V3.65703Z"/>
  </mask>
  <path d="M2.51611 13.557V3.65703H51.1761L48.1761 13.557H30.7761V50.217H19.6761V13.557H2.51611Z" stroke="#FF70FF" stroke-width="3.4" stroke-linejoin="round" mask="url(#path-1-outside-1_4730_2618)"/>
  <path d="M63.6552 26.937C63.6552 37.257 68.9952 41.157 79.7352 41.157C90.1152 41.157 95.5152 36.957 95.5152 26.937C95.5152 16.917 90.1152 12.717 79.7352 12.717C68.9952 12.717 63.6552 16.617 63.6552 26.937ZM107.215 26.937C107.215 43.797 94.5552 51.237 79.1952 51.237C64.3152 51.237 51.9552 43.377 51.9552 26.937C51.9552 10.497 64.3152 2.63703 79.1952 2.63703C94.5552 2.63703 107.215 10.017 107.215 26.937Z" stroke="#FF70FF" stroke-width="3.4" stroke-linejoin="round" mask="url(#path-1-outside-1_4730_2618)"/>
  <path d="M147.357 3.65703H158.457V50.217H147.357L122.997 19.497V50.217H111.897V5.45703L122.997 2.45703L147.357 33.177V3.65703Z" stroke="#FF70FF" stroke-width="3.4" stroke-linejoin="round" mask="url(#path-1-outside-1_4730_2618)"/>
  <path d="M212.684 26.457V50.217H182.804C169.544 50.217 163.124 38.877 163.124 27.357C163.124 15.597 169.844 3.65703 182.804 3.65703H209.684L212.684 13.557H184.124C177.824 13.557 174.824 20.037 174.824 26.637C174.824 33.417 178.004 40.317 184.124 40.317H201.584V29.457L212.684 26.457Z" stroke="#FF70FF" stroke-width="3.4" stroke-linejoin="round" mask="url(#path-1-outside-1_4730_2618)"/>
  <path d="M247.848 26.937C247.848 36.777 252.768 40.797 262.548 41.157L257.268 32.217H269.148L273.648 39.237C277.668 37.077 279.708 33.117 279.708 26.937C279.708 16.917 274.308 12.717 263.928 12.717C253.188 12.717 247.848 16.617 247.848 26.937ZM291.408 26.937C291.408 37.377 286.548 44.217 279.228 47.877L284.928 56.817H271.848L268.368 50.937C266.748 51.117 265.068 51.237 263.388 51.237C248.508 51.237 236.148 43.377 236.148 26.937C236.148 10.497 248.508 2.63703 263.388 2.63703C278.748 2.63703 291.408 10.017 291.408 26.937Z" stroke="#FF70FF" stroke-width="3.4" stroke-linejoin="round" mask="url(#path-1-outside-1_4730_2618)"/>
  <path d="M333.65 31.737V3.65703H344.75V31.737C344.75 45.297 333.65 51.237 319.31 51.237C305.39 51.237 294.65 44.877 294.65 31.737V5.45703L305.75 2.45703V31.737C305.75 38.577 310.31 41.157 319.85 41.157C329.09 41.157 333.65 38.397 333.65 31.737Z" stroke="#FF70FF" stroke-width="3.4" stroke-linejoin="round" mask="url(#path-1-outside-1_4730_2618)"/>
  <path d="M365.661 43.977L369.741 34.497H382.761L373.641 15.177L357.441 50.217H345.741L367.881 5.45703L378.981 2.45703L401.901 50.217H390.201L387.261 43.977H365.661Z" stroke="#FF70FF" stroke-width="3.4" stroke-linejoin="round" mask="url(#path-1-outside-1_4730_2618)"/>
  <path d="M439.848 3.65703H450.948V50.217H439.848L415.488 19.497V50.217H404.388V5.45703L415.488 2.45703L439.848 33.177V3.65703Z" stroke="#FF70FF" stroke-width="3.4" stroke-linejoin="round" mask="url(#path-1-outside-1_4730_2618)"/>
  <path d="M494.492 3.65703H524.372L521.372 13.557H495.812C489.692 13.557 486.512 20.457 486.512 27.237C486.512 33.837 489.512 40.317 495.812 40.317H524.372L521.372 50.217H494.492C481.532 50.217 474.812 38.277 474.812 26.517C474.812 14.997 481.232 3.65703 494.492 3.65703Z" stroke="#FF70FF" stroke-width="3.4" stroke-linejoin="round" mask="url(#path-1-outside-1_4730_2618)"/>
  <path d="M565.869 31.737V3.65703H576.969V31.737C576.969 45.297 565.869 51.237 551.529 51.237C537.609 51.237 526.869 44.877 526.869 31.737V5.45703L537.969 2.45703V31.737C537.969 38.577 542.529 41.157 552.069 41.157C561.309 41.157 565.869 38.397 565.869 31.737Z" stroke="#FF70FF" stroke-width="3.4" stroke-linejoin="round" mask="url(#path-1-outside-1_4730_2618)"/>
  <path d="M591.88 26.937C591.88 37.257 597.22 41.157 607.96 41.157C618.34 41.157 623.74 36.957 623.74 26.937C623.74 16.917 618.34 12.717 607.96 12.717C597.22 12.717 591.88 16.617 591.88 26.937ZM635.44 26.937C635.44 43.797 622.78 51.237 607.42 51.237C592.54 51.237 580.18 43.377 580.18 26.937C580.18 10.497 592.54 2.63703 607.42 2.63703C622.78 2.63703 635.44 10.017 635.44 26.937Z" stroke="#FF70FF" stroke-width="3.4" stroke-linejoin="round" mask="url(#path-1-outside-1_4730_2618)"/>
  <path d="M656.382 3.65703H686.262L683.262 13.557H657.702C651.582 13.557 648.402 20.457 648.402 27.237C648.402 33.837 651.402 40.317 657.702 40.317H686.262L683.262 50.217H656.382C643.422 50.217 636.702 38.277 636.702 26.517C636.702 14.997 643.122 3.65703 656.382 3.65703Z" stroke="#FF70FF" stroke-width="3.4" stroke-linejoin="round" mask="url(#path-1-outside-1_4730_2618)"/>
  <path d="M705.676 13.557V3.65703H754.336L751.336 13.557H733.936V50.217H722.836V13.557H705.676Z" stroke="#FF70FF" stroke-width="3.4" stroke-linejoin="round" mask="url(#path-1-outside-1_4730_2618)"/>
  <path d="M758.535 5.45703L769.635 2.45703V23.217H793.995V3.65703H805.095V50.217H793.995V33.117H769.635V50.217H758.535V5.45703Z" stroke="#FF70FF" stroke-width="3.4" stroke-linejoin="round" mask="url(#path-1-outside-1_4730_2618)"/>
  <path d="M813.182 3.65703H824.282V50.217H813.182V3.65703Z" stroke="#FF70FF" stroke-width="3.4" stroke-linejoin="round" mask="url(#path-1-outside-1_4730_2618)"/>
</svg>