<svg width="301" height="78" viewBox="0 0 301 78" fill="none" xmlns="http://www.w3.org/2000/svg">
<path d="M127.666 15.9919H115.883L127.666 2.09375H141.141L127.666 15.9919Z" stroke="#FF70FF" stroke-width="1.7" stroke-linejoin="round"/>
<path d="M222.378 15.9919H210.595L222.378 2.09375H235.853L222.378 15.9919Z" stroke="#FF70FF" stroke-width="1.7" stroke-linejoin="round"/>
<path d="M11.6908 43.9148C11.3201 44.015 11.0626 44.3513 11.0626 44.7354V51.3254H2.55615C2.28261 51.3254 2.02577 51.457 1.86607 51.6791C1.70636 51.9012 1.66329 52.1865 1.75035 52.4459L4.24802 59.8859C4.36424 60.2321 4.68862 60.4654 5.05382 60.4654H11.0626V74.4954C11.0626 74.9648 11.4432 75.3454 11.9126 75.3454H41.7926C48.6969 75.3454 53.8632 72.3793 57.2808 67.901C60.0023 64.3349 61.5984 59.8359 62.1262 55.1525C62.9647 61.6619 65.9062 66.6748 70.2349 70.1902C75.3752 74.3648 82.3923 76.3654 89.9708 76.3654C97.7737 76.3654 104.984 74.4773 110.264 70.358C115.573 66.2151 118.841 59.883 118.841 51.2154C118.841 42.5185 115.574 36.1857 110.263 32.0497C104.983 27.9378 97.7722 26.0654 89.9708 26.0654C82.3923 26.0654 75.3752 28.066 70.2349 32.2405C65.8158 35.8293 62.8425 40.9788 62.0764 47.688C61.4894 43.0071 59.8537 38.4848 57.1757 34.8694C53.7322 30.2207 48.569 27.0854 41.7926 27.0854H14.9126C14.5381 27.0854 14.2078 27.3304 14.0991 27.6888L11.0991 37.5888C11.0211 37.8464 11.0696 38.1257 11.23 38.3418C11.3903 38.5579 11.6435 38.6854 11.9126 38.6854H40.4726C43.2779 38.6854 45.3535 40.1073 46.7656 42.3528C48.1954 44.6266 48.9226 47.7273 48.9226 50.9154C48.9226 54.1888 48.1522 57.4472 46.6908 59.8571C45.2398 62.2499 43.1578 63.7454 40.4726 63.7454H23.8626V41.7354C23.8626 41.4708 23.7394 41.2213 23.5293 41.0604C23.3193 40.8996 23.0463 40.8458 22.7908 40.9148L11.6908 43.9148ZM122.673 27.0854C122.203 27.0854 121.823 27.4659 121.823 27.9354V74.4954C121.823 74.9648 122.203 75.3454 122.673 75.3454H133.773C134.242 75.3454 134.623 74.9648 134.623 74.4954V27.9354C134.623 27.4659 134.242 27.0854 133.773 27.0854H122.673ZM156.498 37.8354C156.498 38.3048 156.878 38.6854 157.348 38.6854H173.658V74.4954C173.658 74.9648 174.038 75.3454 174.508 75.3454H185.608C186.077 75.3454 186.458 74.9648 186.458 74.4954V38.6854H203.008C203.382 38.6854 203.713 38.4403 203.821 38.0819L206.821 28.1819C206.899 27.9243 206.851 27.645 206.691 27.4289C206.53 27.2128 206.277 27.0854 206.008 27.0854H157.348C156.878 27.0854 156.498 27.4659 156.498 27.9354V37.8354ZM212.866 67.9193C212.753 68.182 212.78 68.4839 212.937 68.7227C213.094 68.9616 213.361 69.1054 213.647 69.1054H234.708L237.418 74.8576C237.558 75.1554 237.858 75.3454 238.187 75.3454H249.887C250.179 75.3454 250.451 75.1953 250.607 74.9481C250.762 74.7008 250.78 74.391 250.653 74.1276L227.733 26.3676C227.556 25.9983 227.141 25.8079 226.745 25.9148L215.645 28.9148C215.41 28.9784 215.213 29.14 215.105 29.3585L192.965 74.1185C192.835 74.382 192.85 74.6941 193.005 74.9438C193.16 75.1935 193.433 75.3454 193.727 75.3454H205.427C205.758 75.3454 206.06 75.1528 206.199 74.8521L221.635 41.4635L229.406 57.9254H217.727C217.388 57.9254 217.081 58.1274 216.946 58.4393L212.866 67.9193ZM299.327 28.1819C299.405 27.9243 299.356 27.645 299.196 27.4289C299.036 27.2128 298.782 27.0854 298.513 27.0854H268.633C261.729 27.0854 256.563 30.0515 253.145 34.5297C249.747 38.9827 248.103 44.8905 248.103 50.7954C248.103 56.8238 249.823 62.935 253.25 67.5613C256.694 72.21 261.857 75.3454 268.633 75.3454H295.513C295.888 75.3454 296.218 75.1003 296.327 74.7419L299.327 64.8419C299.405 64.5843 299.356 64.305 299.196 64.0889C299.036 63.8728 298.782 63.7454 298.513 63.7454H269.953C267.148 63.7454 265.073 62.3235 263.66 60.0779C262.231 57.8041 261.503 54.7034 261.503 51.5154C261.503 48.2419 262.274 44.9835 263.735 42.5736C265.186 40.1809 267.268 38.6854 269.953 38.6854H295.513C295.888 38.6854 296.218 38.4403 296.327 38.0819L299.327 28.1819ZM90.5108 64.5854C85.2127 64.5854 81.4403 63.6173 78.9922 61.5464C76.5767 59.503 75.2808 56.2364 75.2808 51.2154C75.2808 46.1943 76.5767 42.9277 78.9922 40.8843C81.4403 38.8134 85.2127 37.8454 90.5108 37.8454C95.6101 37.8454 99.3113 38.881 101.735 40.9892C104.135 43.0759 105.441 46.3541 105.441 51.2154C105.441 56.0766 104.135 59.3549 101.735 61.4415C99.3113 63.5497 95.6101 64.5854 90.5108 64.5854Z" stroke="#FF70FF" stroke-width="1.7" stroke-linejoin="round"/>
<path d="M71.7349 18.8414C71.4961 19.0861 71.4272 19.4501 71.56 19.7651C71.6927 20.0802 72.0014 20.285 72.3433 20.285H82.4002C82.609 20.285 82.8106 20.2081 82.9663 20.069L91.3601 12.5728L99.9432 20.075C100.098 20.2104 100.297 20.285 100.503 20.285H111.014C111.346 20.285 111.647 20.0918 111.786 19.7903C111.925 19.4888 111.875 19.134 111.659 18.882L96.8009 1.5407C96.5779 1.2805 96.2205 1.1796 95.8944 1.2848L85.8375 4.52896C85.7059 4.57141 85.5867 4.64532 85.4901 4.74429L71.7349 18.8414Z" stroke="#FF70FF" stroke-width="1.7" stroke-linejoin="round"/>
</svg>
