<svg xmlns="http://www.w3.org/2000/svg" width="17" height="17" viewBox="0 0 17 17" fill="none">
  <path d="M15.1632 12.4243C15.1632 12.6643 15.1099 12.9109 14.9965 13.1509C14.8832 13.3909 14.7365 13.6176 14.5432 13.8309C14.2165 14.1909 13.8565 14.4509 13.4499 14.6176C13.0499 14.7843 12.6165 14.8709 12.1499 14.8709C11.4699 14.8709 10.7432 14.7109 9.97652 14.3843C9.20985 14.0576 8.44319 13.6176 7.68319 13.0643C6.91652 12.5043 6.18985 11.8843 5.49652 11.1976C4.80985 10.5043 4.18985 9.7776 3.63652 9.0176C3.08985 8.2576 2.64985 7.4976 2.32985 6.74426C2.00985 5.98426 1.84985 5.2576 1.84985 4.56426C1.84985 4.11093 1.92985 3.6776 2.08985 3.2776C2.24985 2.87093 2.50319 2.4976 2.85652 2.16426C3.28319 1.74426 3.74985 1.5376 4.24319 1.5376C4.42985 1.5376 4.61652 1.5776 4.78319 1.6576C4.95652 1.7376 5.10985 1.8576 5.22985 2.03093L6.77652 4.21093C6.89652 4.3776 6.98319 4.53093 7.04319 4.6776C7.10319 4.8176 7.13652 4.9576 7.13652 5.08426C7.13652 5.24426 7.08985 5.40426 6.99652 5.5576C6.90985 5.71093 6.78319 5.87093 6.62319 6.03093L6.11652 6.5576C6.04319 6.63093 6.00985 6.7176 6.00985 6.82426C6.00985 6.8776 6.01652 6.92426 6.02985 6.9776C6.04985 7.03093 6.06985 7.07093 6.08319 7.11093C6.20319 7.33093 6.40985 7.6176 6.70319 7.96426C7.00319 8.31093 7.32319 8.66426 7.66985 9.0176C8.02985 9.37093 8.37652 9.6976 8.72985 9.9976C9.07652 10.2909 9.36319 10.4909 9.58985 10.6109C9.62319 10.6243 9.66319 10.6443 9.70985 10.6643C9.76319 10.6843 9.81652 10.6909 9.87652 10.6909C9.98985 10.6909 10.0765 10.6509 10.1499 10.5776L10.6565 10.0776C10.8232 9.91093 10.9832 9.78426 11.1365 9.70426C11.2899 9.61093 11.4432 9.56426 11.6099 9.56426C11.7365 9.56426 11.8699 9.59093 12.0165 9.65093C12.1632 9.71093 12.3165 9.7976 12.4832 9.91093L14.6899 11.4776C14.8632 11.5976 14.9832 11.7376 15.0565 11.9043C15.1232 12.0709 15.1632 12.2376 15.1632 12.4243Z" stroke="#FFC6FD" stroke-width="1.5" stroke-miterlimit="10"/>
  <path d="M12.8499 6.20443C12.8499 5.80443 12.5366 5.19109 12.0699 4.69109C11.6433 4.23109 11.0766 3.87109 10.5166 3.87109" stroke="#FFC6FD" stroke-width="1.5" stroke-linecap="round" stroke-linejoin="round"/>
  <path d="M15.1833 6.20426C15.1833 3.62426 13.0966 1.5376 10.5166 1.5376" stroke="#FFC6FD" stroke-width="1.5" stroke-linecap="round" stroke-linejoin="round"/>
</svg>