<svg width="26" height="22" viewBox="0 0 26 22" fill="none" xmlns="http://www.w3.org/2000/svg">
<path id="?" d="M9.23839 20.2333C9.70784 20.2333 10.0884 19.8527 10.0884 19.3833C10.0884 18.9061 10.6005 17.9241 12.5739 17.9241H14.4341C17.6155 17.9241 20.0658 16.9249 21.7271 15.3446C23.3836 13.769 24.2003 11.6662 24.2003 9.5691C24.2003 7.4358 23.3566 5.31797 21.6903 3.73674C20.0192 2.15104 17.5706 1.15 14.4341 1.15H2.6958C2.4267 1.15 2.17349 1.27743 2.01315 1.49356C1.85281 1.70968 1.80429 1.98897 1.88233 2.24651L3.48595 7.53847C3.59456 7.89687 3.92493 8.14196 4.29942 8.14196H14.37C15.0993 8.14196 15.5613 8.36835 15.8342 8.62678C16.1128 8.89055 16.2462 9.23443 16.2462 9.5691C16.2462 9.91342 16.1098 10.2448 15.8337 10.4967C15.5588 10.7475 15.0934 10.9642 14.37 10.9642H12.5098C9.6072 10.9642 7.32822 11.9806 5.77519 13.5743C4.23116 15.1587 3.44923 17.2684 3.44923 19.3833C3.44923 19.8527 3.82979 20.2333 4.29923 20.2333H9.23839Z" stroke="#FF70FF" stroke-width="1.7" stroke-linejoin="round"/>
</svg>
