<svg xmlns="http://www.w3.org/2000/svg" width="204" height="27" viewBox="0 0 204 27" fill="none">
  <mask id="path-1-outside-1_4742_1444" maskUnits="userSpaceOnUse" x="0" y="0.28479" width="204" height="26" fill="black">
    <rect fill="white" y="0.28479" width="204" height="26"/>
    <path fill-rule="evenodd" clip-rule="evenodd" d="M133.705 1.28479H137.428V4.85045L135.975 6.28106L134.377 6.32593V17.3342C134.377 22.981 129.755 25.4545 123.783 25.4545C117.987 25.4545 113.514 22.8061 113.514 17.3342V6.39062L118.137 5.14135V17.3342C118.137 20.1826 120.036 21.257 124.008 21.257C127.856 21.257 129.755 20.1076 129.755 17.3342V5.64106H134.035L134.405 4.85045H133.705V1.28479ZM154.672 1.28479H158.394V4.85045L156.941 6.28106L154.672 6.34479L155.371 4.85045H154.672V1.28479ZM38.7797 22.4313L40.4787 18.4836H45.9006L42.1028 10.4383L35.3567 25.0298H30.4846L39.7042 6.39062L44.3265 5.14135L53.8709 25.0298H48.9988L47.7745 22.4313H38.7797ZM21.638 25.0298V15.1355L17.0157 16.3848V20.9072H9.7449C7.19639 20.9072 5.87216 18.0338 5.87216 15.2105C5.87216 12.4621 7.12143 9.76366 9.7449 9.76366H21.638L20.3887 5.64106H9.19522C3.79837 5.64106 1 10.6132 1 15.5103C1 20.3075 3.67344 25.0298 9.19522 25.0298H21.638ZM29.4611 5.64106H24.8388V25.0298H29.4611V5.64106ZM59.5286 5.64106H54.9063V25.0298H59.5286V5.64106ZM69.3459 9.76366V5.64106H89.6091L88.3598 9.76366H81.1141V25.0298H76.4917V9.76366H69.3459ZM95.98 5.14135L91.3577 6.39062V25.0298H95.98V17.9089H106.124V25.0298H110.746V5.64106H106.124V13.7863H95.98V5.14135ZM147.283 21.257C142.81 21.257 140.587 19.6329 140.587 15.3354C140.587 11.0379 142.81 9.41386 147.283 9.41386C151.605 9.41386 153.854 11.1628 153.854 15.3354C153.854 19.508 151.605 21.257 147.283 21.257ZM147.058 25.4545C153.454 25.4545 158.726 22.3563 158.726 15.3354C158.726 8.28952 153.454 5.21631 147.058 5.21631C140.861 5.21631 135.714 8.4894 135.714 15.3354C135.714 22.1814 140.861 25.4545 147.058 25.4545ZM175.442 5.64106H180.064V25.0298H175.442L165.298 12.2372V25.0298H160.676V6.39062L165.298 5.14135L175.442 17.9339V5.64106ZM202.646 25.0298V15.1355L198.023 16.3848V20.9072H190.753C188.204 20.9072 186.88 18.0338 186.88 15.2105C186.88 12.4621 188.129 9.76366 190.753 9.76366H202.646L201.396 5.64106H190.203C184.806 5.64106 182.008 10.6132 182.008 15.5103C182.008 20.3075 184.681 25.0298 190.203 25.0298H202.646Z"/>
  </mask>
  <path d="M137.428 1.28479H138.062V0.650843H137.428V1.28479ZM133.705 1.28479V0.650843H133.072V1.28479H133.705ZM137.428 4.85045L137.873 5.30213L138.062 5.11588V4.85045H137.428ZM135.975 6.28106L135.993 6.91475L136.242 6.90775L136.42 6.73274L135.975 6.28106ZM134.377 6.32593L134.359 5.69223L133.743 5.70953V6.32593H134.377ZM113.514 6.39062L113.349 5.77863L112.88 5.90527V6.39062H113.514ZM118.137 5.14135H118.771V4.31332L117.971 4.52936L118.137 5.14135ZM129.755 5.64106V5.00711H129.121V5.64106H129.755ZM134.035 5.64106V6.27501H134.438L134.609 5.90976L134.035 5.64106ZM134.405 4.85045L134.979 5.11916L135.401 4.21651H134.405V4.85045ZM133.705 4.85045H133.072V5.4844H133.705V4.85045ZM158.394 1.28479H159.028V0.650843H158.394V1.28479ZM154.672 1.28479V0.650843H154.038V1.28479H154.672ZM158.394 4.85045L158.839 5.30213L159.028 5.11588V4.85045H158.394ZM156.941 6.28106L156.959 6.91475L157.209 6.90775L157.386 6.73274L156.941 6.28106ZM154.672 6.34479L154.097 6.07609L153.662 7.00734L154.689 6.97848L154.672 6.34479ZM155.371 4.85045L155.945 5.11915L156.367 4.21651H155.371V4.85045ZM154.672 4.85045H154.038V5.4844H154.672V4.85045ZM40.4787 18.4836V17.8496H40.0614L39.8964 18.233L40.4787 18.4836ZM38.7797 22.4313L38.1974 22.1807L37.8167 23.0652H38.7797V22.4313ZM45.9006 18.4836V19.1175H46.9009L46.4739 18.213L45.9006 18.4836ZM42.1028 10.4383L42.6761 10.1676L42.0968 8.94053L41.5274 10.1722L42.1028 10.4383ZM35.3567 25.0298V25.6637H35.7621L35.9322 25.2958L35.3567 25.0298ZM30.4846 25.0298L29.9163 24.7487L29.4637 25.6637H30.4846V25.0298ZM39.7042 6.39062L39.5388 5.77863L39.2627 5.85324L39.136 6.10955L39.7042 6.39062ZM44.3265 5.14135L44.898 4.86707L44.67 4.39183L44.1611 4.52936L44.3265 5.14135ZM53.8709 25.0298V25.6637H54.8783L54.4425 24.7555L53.8709 25.0298ZM48.9988 25.0298L48.4253 25.3L48.5967 25.6637H48.9988V25.0298ZM47.7745 22.4313L48.348 22.1611L48.1766 21.7973H47.7745V22.4313ZM21.638 15.1355H22.2719V14.3075L21.4726 14.5235L21.638 15.1355ZM21.638 25.0298V25.6637H22.2719V25.0298H21.638ZM17.0157 16.3848L16.8503 15.7728L16.3817 15.8994V16.3848H17.0157ZM17.0157 20.9072V21.5411H17.6496V20.9072H17.0157ZM21.638 9.76366V10.3976H22.4925L22.2447 9.57981L21.638 9.76366ZM20.3887 5.64106L20.9954 5.45721L20.859 5.00711H20.3887V5.64106ZM24.8388 5.64106V5.00711H24.2049V5.64106H24.8388ZM29.4611 5.64106H30.0951V5.00711H29.4611V5.64106ZM24.8388 25.0298H24.2049V25.6637H24.8388V25.0298ZM29.4611 25.0298V25.6637H30.0951V25.0298H29.4611ZM54.9063 5.64106V5.00711H54.2723V5.64106H54.9063ZM59.5286 5.64106H60.1625V5.00711H59.5286V5.64106ZM54.9063 25.0298H54.2723V25.6637H54.9063V25.0298ZM59.5286 25.0298V25.6637H60.1625V25.0298H59.5286ZM69.3459 5.64106V5.00711H68.712V5.64106H69.3459ZM69.3459 9.76366H68.712V10.3976H69.3459V9.76366ZM89.6091 5.64106L90.2158 5.82491L90.4636 5.00711H89.6091V5.64106ZM88.3598 9.76366V10.3976H88.8301L88.9665 9.94751L88.3598 9.76366ZM81.1141 9.76366V9.12971H80.4801V9.76366H81.1141ZM81.1141 25.0298V25.6637H81.748V25.0298H81.1141ZM76.4917 25.0298H75.8578V25.6637H76.4917V25.0298ZM76.4917 9.76366H77.1257V9.12971H76.4917V9.76366ZM91.3577 6.39062L91.1923 5.77863L90.7237 5.90527V6.39062H91.3577ZM95.98 5.14135H96.614V4.31332L95.8146 4.52936L95.98 5.14135ZM91.3577 25.0298H90.7237V25.6637H91.3577V25.0298ZM95.98 25.0298V25.6637H96.614V25.0298H95.98ZM95.98 17.9089V17.275H95.3461V17.9089H95.98ZM106.124 17.9089H106.758V17.275H106.124V17.9089ZM106.124 25.0298H105.49V25.6637H106.124V25.0298ZM110.746 25.0298V25.6637H111.38V25.0298H110.746ZM110.746 5.64106H111.38V5.00711H110.746V5.64106ZM106.124 5.64106V5.00711H105.49V5.64106H106.124ZM106.124 13.7863V14.4203H106.758V13.7863H106.124ZM95.98 13.7863H95.3461V14.4203H95.98V13.7863ZM180.064 5.64106H180.698V5.00711H180.064V5.64106ZM175.442 5.64106V5.00711H174.808V5.64106H175.442ZM180.064 25.0298V25.6637H180.698V25.0298H180.064ZM175.442 25.0298L174.945 25.4237L175.136 25.6637H175.442V25.0298ZM165.298 12.2372L165.795 11.8433L164.664 10.4175V12.2372H165.298ZM165.298 25.0298V25.6637H165.932V25.0298H165.298ZM160.676 25.0298H160.042V25.6637H160.676V25.0298ZM160.676 6.39062L160.51 5.77863L160.042 5.90527V6.39062H160.676ZM165.298 5.14135L165.795 4.74746L165.535 4.42048L165.133 4.52936L165.298 5.14135ZM175.442 17.9339L174.945 18.3278L176.076 19.7537V17.9339H175.442ZM202.646 15.1355H203.28V14.3075L202.48 14.5235L202.646 15.1355ZM202.646 25.0298V25.6637H203.28V25.0298H202.646ZM198.023 16.3848L197.858 15.7728L197.39 15.8994V16.3848H198.023ZM198.023 20.9072V21.5411H198.657V20.9072H198.023ZM202.646 9.76366V10.3976H203.5L203.252 9.57981L202.646 9.76366ZM201.396 5.64106L202.003 5.45721L201.867 5.00711H201.396V5.64106ZM137.428 0.650843H133.705V1.91874H137.428V0.650843ZM138.062 4.85045V1.28479H136.794V4.85045H138.062ZM136.42 6.73274L137.873 5.30213L136.983 4.39878L135.531 5.82938L136.42 6.73274ZM134.395 6.95962L135.993 6.91475L135.958 5.64736L134.359 5.69223L134.395 6.95962ZM135.011 17.3342V6.32593H133.743V17.3342H135.011ZM123.783 26.0885C126.843 26.0885 129.635 25.4569 131.682 24.0322C133.76 22.5856 135.011 20.3583 135.011 17.3342H133.743C133.743 19.9569 132.684 21.7897 130.957 22.9916C129.2 24.2153 126.695 24.8206 123.783 24.8206V26.0885ZM112.88 17.3342C112.88 20.2672 114.091 22.4897 116.101 23.9582C118.086 25.4084 120.8 26.0885 123.783 26.0885V24.8206C120.97 24.8206 118.549 24.1764 116.849 22.9344C115.174 21.7107 114.148 19.8731 114.148 17.3342H112.88ZM112.88 6.39062V17.3342H114.148V6.39062H112.88ZM117.971 4.52936L113.349 5.77863L113.68 7.00261L118.302 5.75334L117.971 4.52936ZM118.771 17.3342V5.14135H117.503V17.3342H118.771ZM124.008 20.623C122.051 20.623 120.738 20.3528 119.926 19.8305C119.176 19.3488 118.771 18.5962 118.771 17.3342H117.503C117.503 18.9206 118.046 20.1294 119.24 20.8969C120.37 21.624 121.993 21.8909 124.008 21.8909V20.623ZM129.121 17.3342C129.121 18.5548 128.717 19.3143 127.974 19.8074C127.176 20.3366 125.894 20.623 124.008 20.623V21.8909C125.97 21.8909 127.561 21.6027 128.675 20.8639C129.843 20.089 130.389 18.8871 130.389 17.3342H129.121ZM129.121 5.64106V17.3342H130.389V5.64106H129.121ZM134.035 5.00711H129.755V6.27501H134.035V5.00711ZM133.831 4.58175L133.461 5.37236L134.609 5.90976L134.979 5.11916L133.831 4.58175ZM133.705 5.4844H134.405V4.21651H133.705V5.4844ZM133.072 1.28479V4.85045H134.339V1.28479H133.072ZM158.394 0.650843H154.672V1.91874H158.394V0.650843ZM159.028 4.85045V1.28479H157.76V4.85045H159.028ZM157.386 6.73274L158.839 5.30213L157.949 4.39878L156.497 5.82938L157.386 6.73274ZM154.689 6.97848L156.959 6.91475L156.924 5.64736L154.654 5.71109L154.689 6.97848ZM154.797 4.58176L154.097 6.07609L155.246 6.61348L155.945 5.11915L154.797 4.58176ZM154.672 5.4844H155.371V4.21651H154.672V5.4844ZM154.038 1.28479V4.85045H155.305V1.28479H154.038ZM39.8964 18.233L38.1974 22.1807L39.362 22.6819L41.0611 18.7342L39.8964 18.233ZM45.9006 17.8496H40.4787V19.1175H45.9006V17.8496ZM41.5295 10.7089L45.3273 18.7542L46.4739 18.213L42.6761 10.1676L41.5295 10.7089ZM35.9322 25.2958L42.6782 10.7043L41.5274 10.1722L34.7813 24.7637L35.9322 25.2958ZM30.4846 25.6637H35.3567V24.3958H30.4846V25.6637ZM39.136 6.10955L29.9163 24.7487L31.0528 25.3108L40.2724 6.67169L39.136 6.10955ZM44.1611 4.52936L39.5388 5.77863L39.8696 7.00261L44.4919 5.75334L44.1611 4.52936ZM54.4425 24.7555L44.898 4.86707L43.755 5.41563L53.2994 25.304L54.4425 24.7555ZM48.9988 25.6637H53.8709V24.3958H48.9988V25.6637ZM47.201 22.7015L48.4253 25.3L49.5723 24.7596L48.348 22.1611L47.201 22.7015ZM38.7797 23.0652H47.7745V21.7973H38.7797V23.0652ZM21.004 15.1355V25.0298H22.2719V15.1355H21.004ZM17.1811 16.9968L21.8034 15.7475L21.4726 14.5235L16.8503 15.7728L17.1811 16.9968ZM17.6496 20.9072V16.3848H16.3817V20.9072H17.6496ZM9.7449 21.5411H17.0157V20.2732H9.7449V21.5411ZM5.23821 15.2105C5.23821 16.7091 5.5876 18.2538 6.31077 19.4463C7.0417 20.6516 8.1911 21.5411 9.7449 21.5411V20.2732C8.75019 20.2732 7.96322 19.726 7.3949 18.7889C6.81883 17.8389 6.50611 16.5353 6.50611 15.2105H5.23821ZM9.7449 9.12971C8.17605 9.12971 7.02185 9.95206 6.28807 11.119C5.56752 12.2648 5.23821 13.7528 5.23821 15.2105H6.50611C6.50611 13.9198 6.80144 12.6844 7.36139 11.7939C7.90811 10.9245 8.69028 10.3976 9.7449 10.3976V9.12971ZM21.638 9.12971H9.7449V10.3976H21.638V9.12971ZM19.782 5.82491L21.0313 9.94751L22.2447 9.57981L20.9954 5.45721L19.782 5.82491ZM9.19522 6.27501H20.3887V5.00711H9.19522V6.27501ZM1.63395 15.5103C1.63395 13.1725 2.30366 10.844 3.5832 9.1166C4.85038 7.40591 6.71784 6.27501 9.19522 6.27501V5.00711C6.27576 5.00711 4.0456 6.36226 2.56438 8.36191C1.09552 10.3449 0.366053 12.951 0.366053 15.5103H1.63395ZM9.19522 24.3958C6.63891 24.3958 4.77381 23.313 3.5309 21.6844C2.27366 20.037 1.63395 17.8009 1.63395 15.5103H0.366053C0.366053 18.017 1.06307 20.5406 2.52299 22.4536C3.99724 24.3854 6.22976 25.6637 9.19522 25.6637V24.3958ZM21.638 24.3958H9.19522V25.6637H21.638V24.3958ZM24.8388 6.27501H29.4611V5.00711H24.8388V6.27501ZM25.4728 25.0298V5.64106H24.2049V25.0298H25.4728ZM29.4611 24.3958H24.8388V25.6637H29.4611V24.3958ZM28.8272 5.64106V25.0298H30.0951V5.64106H28.8272ZM54.9063 6.27501H59.5286V5.00711H54.9063V6.27501ZM55.5402 25.0298V5.64106H54.2723V25.0298H55.5402ZM59.5286 24.3958H54.9063V25.6637H59.5286V24.3958ZM58.8946 5.64106V25.0298H60.1625V5.64106H58.8946ZM68.712 5.64106V9.76366H69.9799V5.64106H68.712ZM89.6091 5.00711H69.3459V6.27501H89.6091V5.00711ZM88.9665 9.94751L90.2158 5.82491L89.0024 5.45721L87.7531 9.57981L88.9665 9.94751ZM81.1141 10.3976H88.3598V9.12971H81.1141V10.3976ZM81.748 25.0298V9.76366H80.4801V25.0298H81.748ZM76.4917 25.6637H81.1141V24.3958H76.4917V25.6637ZM75.8578 9.76366V25.0298H77.1257V9.76366H75.8578ZM69.3459 10.3976H76.4917V9.12971H69.3459V10.3976ZM91.5231 7.00261L96.1454 5.75334L95.8146 4.52936L91.1923 5.77863L91.5231 7.00261ZM91.9916 25.0298V6.39062H90.7237V25.0298H91.9916ZM95.98 24.3958H91.3577V25.6637H95.98V24.3958ZM95.3461 17.9089V25.0298H96.614V17.9089H95.3461ZM106.124 17.275H95.98V18.5429H106.124V17.275ZM106.758 25.0298V17.9089H105.49V25.0298H106.758ZM110.746 24.3958H106.124V25.6637H110.746V24.3958ZM110.112 5.64106V25.0298H111.38V5.64106H110.112ZM106.124 6.27501H110.746V5.00711H106.124V6.27501ZM106.758 13.7863V5.64106H105.49V13.7863H106.758ZM95.98 14.4203H106.124V13.1524H95.98V14.4203ZM95.3461 5.14135V13.7863H96.614V5.14135H95.3461ZM139.953 15.3354C139.953 17.5878 140.538 19.2833 141.848 20.3917C143.134 21.4797 144.993 21.8909 147.283 21.8909V20.623C145.1 20.623 143.611 20.2222 142.667 19.4237C141.747 18.6458 141.221 17.3805 141.221 15.3354H139.953ZM147.283 8.77991C144.993 8.77991 143.134 9.19114 141.848 10.2791C140.538 11.3876 139.953 13.083 139.953 15.3354H141.221C141.221 13.2903 141.747 12.025 142.667 11.2471C143.611 10.4486 145.1 10.0478 147.283 10.0478V8.77991ZM154.488 15.3354C154.488 13.1382 153.893 11.4514 152.605 10.3316C151.336 9.22787 149.512 8.77991 147.283 8.77991V10.0478C149.376 10.0478 150.837 10.4743 151.773 11.2883C152.691 12.0861 153.22 13.36 153.22 15.3354H154.488ZM147.283 21.8909C149.512 21.8909 151.336 21.4429 152.605 20.3392C153.893 19.2194 154.488 17.5326 154.488 15.3354H153.22C153.22 17.3108 152.691 18.5847 151.773 19.3825C150.837 20.1965 149.376 20.623 147.283 20.623V21.8909ZM158.092 15.3354C158.092 18.6686 156.85 21.0067 154.901 22.528C152.928 24.067 150.164 24.8206 147.058 24.8206V26.0885C150.348 26.0885 153.418 25.293 155.681 23.5276C157.966 21.7446 159.36 19.0231 159.36 15.3354H158.092ZM147.058 5.85025C150.165 5.85025 152.929 6.5981 154.901 8.13382C156.85 9.65161 158.092 11.9891 158.092 15.3354H159.36C159.36 11.6358 157.966 8.91376 155.68 7.13348C153.417 5.37111 150.347 4.58236 147.058 4.58236V5.85025ZM136.348 15.3354C136.348 12.0879 137.561 9.74493 139.462 8.20071C141.381 6.64197 144.063 5.85025 147.058 5.85025V4.58236C143.856 4.58236 140.866 5.42718 138.663 7.2165C136.442 9.02032 135.081 11.7369 135.081 15.3354H136.348ZM147.058 24.8206C144.063 24.8206 141.381 24.0288 139.462 22.4701C137.561 20.9259 136.348 18.5829 136.348 15.3354H135.081C135.081 18.9339 136.442 21.6505 138.663 23.4543C140.866 25.2436 143.856 26.0885 147.058 26.0885V24.8206ZM180.064 5.00711H175.442V6.27501H180.064V5.00711ZM180.698 25.0298V5.64106H179.43V25.0298H180.698ZM175.442 25.6637H180.064V24.3958H175.442V25.6637ZM164.801 12.6311L174.945 25.4237L175.939 24.6359L165.795 11.8433L164.801 12.6311ZM165.932 25.0298V12.2372H164.664V25.0298H165.932ZM160.676 25.6637H165.298V24.3958H160.676V25.6637ZM160.042 6.39062V25.0298H161.31V6.39062H160.042ZM165.133 4.52936L160.51 5.77863L160.841 7.00261L165.463 5.75334L165.133 4.52936ZM175.939 17.54L165.795 4.74746L164.801 5.53524L174.945 18.3278L175.939 17.54ZM174.808 5.64106V17.9339H176.076V5.64106H174.808ZM202.012 15.1355V25.0298H203.28V15.1355H202.012ZM198.189 16.9968L202.811 15.7475L202.48 14.5235L197.858 15.7728L198.189 16.9968ZM198.657 20.9072V16.3848H197.39V20.9072H198.657ZM190.753 21.5411H198.023V20.2732H190.753V21.5411ZM186.246 15.2105C186.246 16.7091 186.595 18.2538 187.319 19.4463C188.049 20.6516 189.199 21.5411 190.753 21.5411V20.2732C189.758 20.2732 188.971 19.726 188.403 18.7889C187.827 17.8389 187.514 16.5353 187.514 15.2105H186.246ZM190.753 9.12971C189.184 9.12971 188.03 9.95206 187.296 11.119C186.575 12.2648 186.246 13.7528 186.246 15.2105H187.514C187.514 13.9198 187.809 12.6844 188.369 11.7939C188.916 10.9245 189.698 10.3976 190.753 10.3976V9.12971ZM202.646 9.12971H190.753V10.3976H202.646V9.12971ZM200.79 5.82491L202.039 9.94751L203.252 9.57981L202.003 5.45721L200.79 5.82491ZM190.203 6.27501H201.396V5.00711H190.203V6.27501ZM182.642 15.5103C182.642 13.1725 183.311 10.844 184.591 9.1166C185.858 7.40591 187.726 6.27501 190.203 6.27501V5.00711C187.284 5.00711 185.053 6.36226 183.572 8.36191C182.103 10.3449 181.374 12.951 181.374 15.5103H182.642ZM190.203 24.3958C187.647 24.3958 185.782 23.313 184.539 21.6844C183.281 20.037 182.642 17.8009 182.642 15.5103H181.374C181.374 18.017 182.071 20.5406 183.531 22.4536C185.005 24.3854 187.238 25.6637 190.203 25.6637V24.3958ZM202.646 24.3958H190.203V25.6637H202.646V24.3958Z" fill="url(#paint0_linear_4742_1444)" mask="url(#path-1-outside-1_4742_1444)"/>
  <defs>
    <linearGradient id="paint0_linear_4742_1444" x1="1" y1="1.28479" x2="189.536" y2="63.5871" gradientUnits="userSpaceOnUse">
      <stop offset="0.00270832" stop-color="#F07DED"/>
      <stop offset="0.520399" stop-color="#EC4AE7"/>
      <stop offset="0.995535" stop-color="#F281EF"/>
    </linearGradient>
  </defs>
</svg>