<svg width="546" height="157" viewBox="0 0 546 157" fill="none" xmlns="http://www.w3.org/2000/svg">
<path fill-rule="evenodd" clip-rule="evenodd" d="M370.21 88.1357V100.109L365.331 104.914L362.03 105.007V132.874C362.03 140.983 358.674 146.956 353.103 150.835C347.615 154.656 340.126 156.35 331.922 156.35C323.921 156.35 316.645 154.526 311.321 150.637C305.93 146.699 302.684 140.739 302.684 132.874V102.226L318.48 97.9571V132.874C318.48 136.258 319.568 138.276 321.577 139.568C323.755 140.969 327.276 141.693 332.525 141.693C337.581 141.693 341.02 140.925 343.16 139.506C345.153 138.184 346.235 136.147 346.235 132.874V99.8176H356.828V88.1357H370.21ZM359.411 101.518H347.935V132.874C347.935 140.311 342.843 143.393 332.525 143.393C321.872 143.393 316.78 140.512 316.78 132.874V100.178L304.384 103.528V132.874C304.384 147.547 316.378 154.65 331.922 154.65C347.935 154.65 360.33 148.016 360.33 132.874V103.354L364.615 103.234L368.51 99.3975V89.8357H358.528V99.3975H360.403L359.411 101.518ZM426.435 88.1357V100.109L421.556 104.914L416.831 105.047C417.042 105.202 417.25 105.359 417.457 105.52C423.587 110.294 427.325 117.593 427.325 127.514C427.325 137.403 423.586 144.701 417.458 149.482C411.39 154.216 403.157 156.35 394.335 156.35C385.75 156.35 377.731 154.084 371.823 149.286C365.867 144.449 362.217 137.164 362.217 127.514C362.217 117.864 365.867 110.579 371.823 105.742C377.731 100.944 385.75 98.6785 394.335 98.6785C401.22 98.6785 407.748 99.9675 413.167 102.781L413.955 101.097H413.052V88.1357H426.435ZM414.752 99.3975H416.628L414.752 103.405L420.839 103.234L424.735 99.3975V89.8357H414.752V99.3975ZM412.446 104.323C407.319 101.645 401.059 100.379 394.335 100.379C377.719 100.379 363.917 109.156 363.917 127.514C363.917 145.872 377.719 154.65 394.335 154.65C411.487 154.65 425.625 146.341 425.625 127.514C425.625 116.734 421.023 109.422 413.885 105.13C413.416 104.848 412.936 104.579 412.446 104.323ZM107.412 134.256H120.388L112.902 118.398L95.883 155.211H64.8911V99.8176H80.6864V151.788L105.27 102.087L119.771 98.1676L145.52 151.824V99.8176H161.316V155.211H130.3L127.017 148.242H101.393L107.412 134.256ZM128.096 146.542L131.379 153.511H144.444L118.849 100.178L106.454 103.528L81.7308 153.511H94.796L112.886 114.382L123.071 135.956H108.531L103.975 146.542H128.096ZM59.7076 124.758V155.211H24.641C16.6888 155.211 10.702 151.783 6.74866 146.602C2.83372 141.472 0.9646 134.705 0.9646 127.983C0.9646 121.12 2.92075 114.131 6.85966 108.814C10.8317 103.452 16.8121 99.8176 24.641 99.8176H55.9188L60.2991 114.273H26.115C23.287 114.273 21.1895 115.686 19.7234 118.017C18.2218 120.405 17.4298 123.718 17.4298 127.179C17.4298 130.732 18.2685 134.227 19.8133 136.775C21.3373 139.288 23.4476 140.755 26.115 140.755H43.9124V129.027L59.7076 124.758ZM45.6124 142.455H26.115C19.2809 142.455 15.7298 134.75 15.7298 127.179C15.7298 119.809 19.0799 112.573 26.115 112.573H58.0076L54.6576 101.518H24.641C10.1687 101.518 2.6646 114.851 2.6646 127.983C2.6646 140.847 9.83373 153.511 24.641 153.511H58.0076V126.978L45.6124 130.328V142.455ZM184.242 99.8176H242.571L238.191 114.273H219.199V155.211H203.404V114.273H184.242V99.8176ZM217.499 153.511H205.104V112.573H185.942V101.518H240.28L236.93 112.573H217.499V153.511ZM243.269 102.226L259.064 97.9571V121.66H282.867V99.8176H298.662V155.211H282.867V136.115H259.064V155.211H243.269V102.226ZM257.364 134.415H284.567V153.511H296.962V101.518H284.567V123.36H257.364V100.178L244.969 103.528V153.511H257.364V134.415ZM484.546 99.8176V155.211H469.629L444.948 124.086V155.211H429.153V102.226L443.885 98.2445L468.751 129.602V99.8176H484.546ZM470.451 134.482L443.248 100.178L430.853 103.528V153.511H443.248V119.206L470.451 153.511H482.846V101.518H470.451V134.482ZM545.1 124.758V155.211H510.034C502.081 155.211 496.095 151.783 492.141 146.602C488.226 141.472 486.357 134.705 486.357 127.983C486.357 121.12 488.313 114.131 492.252 108.814C496.224 103.452 502.205 99.8176 510.034 99.8176H541.311L545.692 114.273H511.508C508.68 114.273 506.582 115.686 505.116 118.017C503.615 120.405 502.823 123.718 502.823 127.179C502.823 130.732 503.661 134.227 505.206 136.775C506.73 139.288 508.84 140.755 511.508 140.755H529.305V129.027L545.1 124.758ZM531.005 142.455H511.508C504.674 142.455 501.123 134.75 501.123 127.179C501.123 119.809 504.473 112.573 511.508 112.573H543.4L540.05 101.518H510.034C495.561 101.518 488.057 114.851 488.057 127.983C488.057 140.847 495.226 153.511 510.034 153.511H543.4V126.978L531.005 130.328V142.455ZM382.56 138.477C385.092 140.619 389.085 141.693 394.938 141.693C400.552 141.693 404.47 140.55 406.98 138.367C409.44 136.227 410.859 132.811 410.859 127.514C410.859 122.217 409.44 118.801 406.98 116.661C404.47 114.479 400.552 113.335 394.938 113.335C389.085 113.335 385.092 114.41 382.56 116.551C380.094 118.637 378.682 122.03 378.682 127.514C378.682 132.998 380.094 136.391 382.56 138.477ZM78.9864 101.518V153.511H66.5911V101.518H78.9864ZM159.616 101.518V153.511H147.22V101.518H159.616ZM376.982 127.514C376.982 139.038 382.945 143.393 394.938 143.393C406.529 143.393 412.559 138.703 412.559 127.514C412.559 116.325 406.529 111.635 394.938 111.635C382.945 111.635 376.982 115.99 376.982 127.514Z" fill="url(#paint0_linear_5023_819)"/>
<path fill-rule="evenodd" clip-rule="evenodd" d="M389.65 89.8357C389.65 90.7746 388.889 91.5357 387.95 91.5357H381.328C380.389 91.5357 379.628 90.7746 379.628 89.8357C379.628 86.8642 380.727 83.8923 382.905 81.6565C385.102 79.4023 388.307 77.988 392.336 77.988H394.83C395.684 77.988 396.166 77.7343 396.414 77.5076C396.665 77.2787 396.784 76.986 396.784 76.678C396.784 76.3788 396.666 76.0663 396.407 75.8216C396.16 75.5876 395.686 75.3251 394.83 75.3251H381.328C380.579 75.3251 379.919 74.8349 379.701 74.1181L377.551 67.0233C377.395 66.5083 377.492 65.9497 377.813 65.5174C378.134 65.0852 378.64 64.8303 379.178 64.8303H394.916C399.243 64.8303 402.671 66.2139 405.03 68.4522C407.379 70.6816 408.569 73.6696 408.569 76.678C408.569 79.6353 407.417 82.6037 405.079 84.8272C402.732 87.06 399.301 88.4398 394.916 88.4398H392.422C389.955 88.4398 389.65 89.6215 389.65 89.8357ZM394.916 66.5303C402.827 66.5303 406.869 71.5612 406.869 76.678C406.869 81.7089 402.956 86.7398 394.916 86.7398H392.422C389.412 86.7398 387.95 88.3307 387.95 89.8357H381.328C381.328 89.2657 381.375 88.6967 381.468 88.1357C382.214 83.6604 385.917 79.688 392.336 79.688H394.83C397.238 79.688 398.484 78.226 398.484 76.678C398.484 75.1731 397.281 73.6251 394.83 73.6251H381.328L379.178 66.5303H394.916Z" fill="url(#paint1_linear_5023_819)"/>
<path fill-rule="evenodd" clip-rule="evenodd" d="M120.441 88.2429C120.441 89.1818 119.68 89.9429 118.741 89.9429H112.119C111.18 89.9429 110.419 89.1818 110.419 88.2429C110.419 85.2714 111.518 82.2996 113.696 80.0638C115.893 77.8095 119.098 76.3952 123.127 76.3952H125.621C126.475 76.3952 126.957 76.1415 127.205 75.9148C127.456 75.6859 127.576 75.3933 127.576 75.0853C127.576 74.786 127.457 74.4736 127.198 74.2289C126.951 73.9948 126.477 73.7324 125.621 73.7324H112.119C111.37 73.7324 110.71 73.2422 110.492 72.5254L108.342 65.4306C108.186 64.9155 108.283 64.3569 108.604 63.9247C108.925 63.4924 109.431 63.2375 109.969 63.2375H125.707C130.034 63.2375 133.462 64.6211 135.821 66.8594C138.17 69.0888 139.36 72.0769 139.36 75.0853C139.36 78.0425 138.208 81.0109 135.87 83.2345C133.523 85.4672 130.092 86.847 125.707 86.847H123.213C120.746 86.847 120.441 88.0288 120.441 88.2429ZM125.707 64.9375C133.618 64.9375 137.66 69.9684 137.66 75.0853C137.66 80.1161 133.747 85.147 125.707 85.147H123.213C120.203 85.147 118.741 86.7379 118.741 88.2429H112.119C112.119 87.6729 112.166 87.1039 112.259 86.5429C113.005 82.0676 116.708 78.0952 123.127 78.0952H125.621C128.029 78.0952 129.276 76.6332 129.276 75.0853C129.276 73.5803 128.072 72.0324 125.621 72.0324H112.119L109.969 64.9375H125.707Z" fill="url(#paint2_linear_5023_819)"/>
<path d="M152.703 30.4929L182.415 30.4939L174.971 32.5213H152.703L120.444 46.996H114.913L152.703 30.4929Z" fill="white" fill-opacity="0.5"/>
<g filter="url(#filter0_dd_5023_819)">
<path d="M233.179 38.1641C231.965 38.1641 230.892 38.0241 229.959 37.7441C229.044 37.4641 228.26 36.9508 227.607 36.2041C226.972 35.4574 226.487 34.3934 226.151 33.0121C225.833 31.6121 225.675 29.8014 225.675 27.5801C225.675 25.4334 225.843 23.6788 226.179 22.3161C226.533 20.9348 227.037 19.8708 227.691 19.1241C228.344 18.3588 229.137 17.8268 230.071 17.5281C231.004 17.2294 232.059 17.0801 233.235 17.0801C234.168 17.0801 235.036 17.1361 235.839 17.2481C236.66 17.3414 237.397 17.4628 238.051 17.6121C238.704 17.7428 239.255 17.8921 239.703 18.0601V21.2801C239.367 21.2054 238.909 21.1308 238.331 21.0561C237.771 20.9814 237.127 20.9254 236.399 20.8881C235.671 20.8321 234.905 20.8041 234.103 20.8041C233.319 20.8041 232.647 20.8974 232.087 21.0841C231.545 21.2521 231.107 21.5788 230.771 22.0641C230.453 22.5308 230.211 23.2121 230.043 24.1081C229.893 25.0041 229.819 26.1708 229.819 27.6081C229.819 28.9894 229.884 30.1281 230.015 31.0241C230.164 31.9201 230.397 32.6201 230.715 33.1241C231.032 33.6094 231.461 33.9548 232.003 34.1601C232.563 34.3468 233.263 34.4401 234.103 34.4401C235.521 34.4401 236.669 34.4121 237.547 34.3561C238.443 34.3001 239.161 34.2348 239.703 34.1601V37.3521C239.199 37.5201 238.62 37.6694 237.967 37.8001C237.313 37.9121 236.595 37.9961 235.811 38.0521C235.027 38.1268 234.149 38.1641 233.179 38.1641ZM251.118 19.5161V17.2761H254.562C255.196 17.2761 255.691 17.0521 256.046 16.6041C256.4 16.1561 256.578 15.3534 256.578 14.1961H259.434C259.434 15.3721 259.256 16.3614 258.902 17.1641C258.566 17.9481 258.09 18.5361 257.474 18.9281C256.858 19.3201 256.139 19.5161 255.318 19.5161H251.118ZM250.418 38.1641C248.999 38.1641 247.758 38.0334 246.694 37.7721C245.63 37.4921 244.734 36.9881 244.006 36.2601C243.296 35.5134 242.764 34.4494 242.41 33.0681C242.055 31.6868 241.878 29.8854 241.878 27.6641C241.878 25.4428 242.055 23.6414 242.41 22.2601C242.783 20.8601 243.324 19.7868 244.034 19.0401C244.743 18.2934 245.63 17.7801 246.694 17.5001C247.758 17.2201 248.999 17.0801 250.418 17.0801C251.836 17.0801 253.078 17.2201 254.142 17.5001C255.206 17.7801 256.092 18.2934 256.802 19.0401C257.511 19.7868 258.043 20.8601 258.398 22.2601C258.752 23.6414 258.93 25.4428 258.93 27.6641C258.93 29.8854 258.752 31.6868 258.398 33.0681C258.043 34.4494 257.511 35.5134 256.802 36.2601C256.092 36.9881 255.206 37.4921 254.142 37.7721C253.078 38.0334 251.836 38.1641 250.418 38.1641ZM250.418 34.4401C251.258 34.4401 251.958 34.3468 252.518 34.1601C253.078 33.9734 253.516 33.6468 253.834 33.1801C254.17 32.6948 254.412 32.0134 254.562 31.1361C254.711 30.2401 254.786 29.0828 254.786 27.6641C254.786 26.1708 254.711 24.9761 254.562 24.0801C254.412 23.1841 254.17 22.5028 253.834 22.0361C253.516 21.5508 253.078 21.2241 252.518 21.0561C251.958 20.8881 251.258 20.8041 250.418 20.8041C249.615 20.8041 248.934 20.8881 248.374 21.0561C247.814 21.2241 247.356 21.5508 247.002 22.0361C246.666 22.5028 246.414 23.1841 246.246 24.0801C246.096 24.9761 246.022 26.1708 246.022 27.6641C246.022 29.0828 246.087 30.2401 246.218 31.1361C246.367 32.0134 246.61 32.6948 246.946 33.1801C247.282 33.6468 247.73 33.9734 248.29 34.1601C248.868 34.3468 249.578 34.4401 250.418 34.4401ZM276.318 38.1641C275.105 38.1641 274.032 38.0241 273.098 37.7441C272.184 37.4641 271.4 36.9508 270.746 36.2041C270.112 35.4574 269.626 34.3934 269.29 33.0121C268.973 31.6121 268.814 29.8014 268.814 27.5801C268.814 25.4334 268.982 23.6788 269.318 22.3161C269.673 20.9348 270.177 19.8708 270.83 19.1241C271.484 18.3588 272.277 17.8268 273.21 17.5281C274.144 17.2294 275.198 17.0801 276.374 17.0801C277.308 17.0801 278.176 17.1361 278.978 17.2481C279.8 17.3414 280.537 17.4628 281.19 17.6121C281.844 17.7428 282.394 17.8921 282.842 18.0601V21.2801C282.506 21.2054 282.049 21.1308 281.47 21.0561C280.91 20.9814 280.266 20.9254 279.538 20.8881C278.81 20.8321 278.045 20.8041 277.242 20.8041C276.458 20.8041 275.786 20.8974 275.226 21.0841C274.685 21.2521 274.246 21.5788 273.91 22.0641C273.593 22.5308 273.35 23.2121 273.182 24.1081C273.033 25.0041 272.958 26.1708 272.958 27.6081C272.958 28.9894 273.024 30.1281 273.154 31.0241C273.304 31.9201 273.537 32.6201 273.854 33.1241C274.172 33.6094 274.601 33.9548 275.142 34.1601C275.702 34.3468 276.402 34.4401 277.242 34.4401C278.661 34.4401 279.809 34.4121 280.686 34.3561C281.582 34.3001 282.301 34.2348 282.842 34.1601V37.3521C282.338 37.5201 281.76 37.6694 281.106 37.8001C280.453 37.9121 279.734 37.9961 278.95 38.0521C278.166 38.1268 277.289 38.1641 276.318 38.1641ZM284.507 37.9961L291.003 17.2761H296.239L302.735 37.9961H298.423L297.107 33.6561H290.051L288.763 37.9961H284.507ZM291.031 29.9321H296.127L293.579 20.8321L291.031 29.9321ZM292.263 12.7961H295.091L297.835 15.8481H295.427L293.607 14.6441L291.647 15.8481H289.211L292.263 12.7961ZM297.471 9.96809H300.831L298.647 13.4681H296.211L297.471 9.96809ZM312.025 38.1361C310.886 38.1361 309.822 38.0428 308.833 37.8561C307.844 37.6508 306.976 37.3054 306.229 36.8201C305.501 36.3161 304.932 35.6254 304.521 34.7481C304.129 33.8521 303.933 32.7134 303.933 31.3321V17.2761H308.077V31.3041C308.077 32.0694 308.226 32.6761 308.525 33.1241C308.842 33.5721 309.29 33.8988 309.869 34.1041C310.466 34.3094 311.185 34.4121 312.025 34.4121C312.846 34.4121 313.546 34.3094 314.125 34.1041C314.722 33.8988 315.17 33.5721 315.469 33.1241C315.786 32.6761 315.945 32.0694 315.945 31.3041V17.2761H320.117V31.3321C320.117 32.7134 319.912 33.8521 319.501 34.7481C319.09 35.6254 318.521 36.3161 317.793 36.8201C317.065 37.3054 316.206 37.6508 315.217 37.8561C314.246 38.0428 313.182 38.1361 312.025 38.1361Z" fill="url(#paint3_linear_5023_819)"/>
</g>
<path d="M394.127 30.4929L364.415 30.4939L371.858 32.5213H394.127L426.385 46.996H431.917L394.127 30.4929Z" fill="white" fill-opacity="0.5"/>
<defs>
<filter id="filter0_dd_5023_819" x="216.675" y="0.968018" width="112.442" height="46.196" filterUnits="userSpaceOnUse" color-interpolation-filters="sRGB">
<feFlood flood-opacity="0" result="BackgroundImageFix"/>
<feColorMatrix in="SourceAlpha" type="matrix" values="0 0 0 0 0 0 0 0 0 0 0 0 0 0 0 0 0 0 127 0" result="hardAlpha"/>
<feOffset/>
<feGaussianBlur stdDeviation="4.5"/>
<feComposite in2="hardAlpha" operator="out"/>
<feColorMatrix type="matrix" values="0 0 0 0 0.925 0 0 0 0 0.289062 0 0 0 0 0.904486 0 0 0 1 0"/>
<feBlend mode="normal" in2="BackgroundImageFix" result="effect1_dropShadow_5023_819"/>
<feColorMatrix in="SourceAlpha" type="matrix" values="0 0 0 0 0 0 0 0 0 0 0 0 0 0 0 0 0 0 127 0" result="hardAlpha"/>
<feOffset/>
<feGaussianBlur stdDeviation="1.5"/>
<feComposite in2="hardAlpha" operator="out"/>
<feColorMatrix type="matrix" values="0 0 0 0 0.980246 0 0 0 0 0.457958 0 0 0 0 0.963398 0 0 0 1 0"/>
<feBlend mode="normal" in2="effect1_dropShadow_5023_819" result="effect2_dropShadow_5023_819"/>
<feBlend mode="normal" in="SourceGraphic" in2="effect2_dropShadow_5023_819" result="shape"/>
</filter>
<linearGradient id="paint0_linear_5023_819" x1="0.9646" y1="63.2375" x2="537.106" y2="187.473" gradientUnits="userSpaceOnUse">
<stop offset="0.00270832" stop-color="#F07DED"/>
<stop offset="0.520399" stop-color="#EC4AE7"/>
<stop offset="0.995535" stop-color="#F281EF"/>
</linearGradient>
<linearGradient id="paint1_linear_5023_819" x1="0.9646" y1="63.2375" x2="537.106" y2="187.473" gradientUnits="userSpaceOnUse">
<stop offset="0.00270832" stop-color="#F07DED"/>
<stop offset="0.520399" stop-color="#EC4AE7"/>
<stop offset="0.995535" stop-color="#F281EF"/>
</linearGradient>
<linearGradient id="paint2_linear_5023_819" x1="0.9646" y1="63.2375" x2="537.106" y2="187.473" gradientUnits="userSpaceOnUse">
<stop offset="0.00270832" stop-color="#F07DED"/>
<stop offset="0.520399" stop-color="#EC4AE7"/>
<stop offset="0.995535" stop-color="#F281EF"/>
</linearGradient>
<linearGradient id="paint3_linear_5023_819" x1="273.415" y1="10.9961" x2="273.415" y2="46.9961" gradientUnits="userSpaceOnUse">
<stop stop-color="#FFC6FD"/>
<stop offset="0.489583" stop-color="#FF9EFC"/>
<stop offset="1" stop-color="#FFC6FD"/>
</linearGradient>
</defs>
</svg>
