<svg width="292" height="68" viewBox="0 0 292 68" fill="none" xmlns="http://www.w3.org/2000/svg">
<g filter="url(#filter0_d_5031_765)">
<g filter="url(#filter1_d_5031_765)">
<path d="M189.677 35.1472C189.852 35.1472 189.994 35.0053 189.994 34.8302C189.994 34.5097 190.324 33.9927 191.345 33.9927H192.275C193.842 33.9927 195.039 33.5009 195.847 32.7328C196.652 31.9665 197.049 30.944 197.049 29.9236C197.049 28.8856 196.639 27.8555 195.828 27.086C195.016 26.3149 193.819 25.8224 192.275 25.8224H186.406C186.306 25.8224 186.211 25.87 186.152 25.9505C186.092 26.0311 186.074 26.1353 186.103 26.2313L186.905 28.8771C186.945 29.0107 187.068 29.1021 187.208 29.1021H192.243C192.631 29.1021 192.89 29.2232 193.049 29.3741C193.21 29.5269 193.289 29.7275 193.289 29.9236C193.289 30.1253 193.208 30.3202 193.047 30.4671C192.887 30.6136 192.627 30.729 192.243 30.729H191.313C189.888 30.729 188.777 31.2273 188.023 32.0013C187.272 32.772 186.891 33.7991 186.891 34.8302C186.891 35.0053 187.033 35.1472 187.208 35.1472H189.677Z" stroke="url(#paint0_linear_5031_765)" stroke-width="0.633947" stroke-linejoin="round"/>
<path d="M89.2866 34.5532C89.4617 34.5532 89.6036 34.4113 89.6036 34.2363C89.6036 33.9157 89.9331 33.3987 90.9542 33.3987H91.8842C93.4516 33.3987 94.6485 32.907 95.4559 32.1389C96.2616 31.3726 96.6588 30.3501 96.6588 29.3297C96.6588 28.2917 96.2485 27.2615 95.4376 26.4921C94.625 25.721 93.4287 25.2285 91.8842 25.2285H86.0156C85.9153 25.2285 85.8208 25.276 85.7611 25.3566C85.7013 25.4372 85.6832 25.5414 85.7123 25.6374L86.514 28.2831C86.5545 28.4168 86.6777 28.5082 86.8174 28.5082H91.8522C92.2403 28.5082 92.4991 28.6293 92.6584 28.7801C92.8199 28.933 92.8981 29.1336 92.8981 29.3297C92.8981 29.5314 92.8178 29.7263 92.6567 29.8732C92.4961 30.0197 92.236 30.1351 91.8522 30.1351H90.9221C89.4975 30.1351 88.3869 30.6333 87.6325 31.4074C86.8815 32.178 86.5003 33.2052 86.5003 34.2363C86.5003 34.4113 86.6422 34.5532 86.8173 34.5532H89.2866Z" stroke="url(#paint1_linear_5031_765)" stroke-width="0.633947" stroke-linejoin="round"/>
<mask id="path-3-outside-1_5031_765" maskUnits="userSpaceOnUse" x="45" y="33.8303" width="204" height="26" fill="black">
<rect fill="white" x="45" y="33.8303" width="204" height="26"/>
<path fill-rule="evenodd" clip-rule="evenodd" d="M178.705 34.8303H182.428V38.3959L180.975 39.8265L179.377 39.8714V50.8797C179.377 56.5264 174.755 59 168.783 59C162.987 59 158.514 56.3515 158.514 50.8797V39.9361L163.137 38.6868V50.8797C163.137 53.7281 165.036 54.8024 169.008 54.8024C172.856 54.8024 174.755 53.6531 174.755 50.8797V39.1865H179.035L179.405 38.3959H178.705V34.8303ZM199.672 34.8303H203.394V38.3959L201.941 39.8265L199.672 39.8903L200.371 38.3959H199.672V34.8303ZM83.7797 55.9767L85.4787 52.029H90.9006L87.1028 43.9837L80.3567 58.5752H75.4846L84.7042 39.9361L89.3265 38.6868L98.8709 58.5752H93.9988L92.7745 55.9767H83.7797ZM66.638 58.5752V48.681L62.0157 49.9303V54.4526H54.7449C52.1964 54.4526 50.8722 51.5793 50.8722 48.756C50.8722 46.0076 52.1214 43.3091 54.7449 43.3091H66.638L65.3887 39.1865H54.1952C48.7984 39.1865 46 44.1586 46 49.0558C46 53.853 48.6734 58.5752 54.1952 58.5752H66.638ZM74.4611 39.1865H69.8388V58.5752H74.4611V39.1865ZM104.529 39.1865H99.9063V58.5752H104.529V39.1865ZM114.346 43.3091V39.1865H134.609L133.36 43.3091H126.114V58.5752H121.492V43.3091H114.346ZM140.98 38.6868L136.358 39.9361V58.5752H140.98V51.4544H151.124V58.5752H155.746V39.1865H151.124V47.3318H140.98V38.6868ZM192.283 54.8024C187.81 54.8024 185.587 53.1784 185.587 48.8809C185.587 44.5834 187.81 42.9593 192.283 42.9593C196.605 42.9593 198.854 44.7083 198.854 48.8809C198.854 53.0534 196.605 54.8024 192.283 54.8024ZM192.058 59C198.454 59 203.726 55.9018 203.726 48.8809C203.726 41.835 198.454 38.7618 192.058 38.7618C185.861 38.7618 180.714 42.0349 180.714 48.8809C180.714 55.7269 185.861 59 192.058 59ZM220.442 39.1865H225.064V58.5752H220.442L210.298 45.7827V58.5752H205.676V39.9361L210.298 38.6868L220.442 51.4794V39.1865ZM247.646 58.5752V48.681L243.023 49.9303V54.4526H235.753C233.204 54.4526 231.88 51.5793 231.88 48.756C231.88 46.0076 233.129 43.3091 235.753 43.3091H247.646L246.396 39.1865H235.203C229.806 39.1865 227.008 44.1586 227.008 49.0558C227.008 53.853 229.681 58.5752 235.203 58.5752H247.646Z"/>
</mask>
<path d="M182.428 34.8303H183.062V34.1963H182.428V34.8303ZM178.705 34.8303V34.1963H178.072V34.8303H178.705ZM182.428 38.3959L182.873 38.8476L183.062 38.6614V38.3959H182.428ZM180.975 39.8265L180.993 40.4602L181.242 40.4532L181.42 40.2782L180.975 39.8265ZM179.377 39.8714L179.359 39.2377L178.743 39.255V39.8714H179.377ZM158.514 39.9361L158.349 39.3241L157.88 39.4507V39.9361H158.514ZM163.137 38.6868H163.771V37.8588L162.971 38.0748L163.137 38.6868ZM174.755 39.1865V38.5526H174.121V39.1865H174.755ZM179.035 39.1865V39.8205H179.438L179.609 39.4552L179.035 39.1865ZM179.405 38.3959L179.979 38.6646L180.401 37.762H179.405V38.3959ZM178.705 38.3959H178.072V39.0299H178.705V38.3959ZM203.394 34.8303H204.028V34.1963H203.394V34.8303ZM199.672 34.8303V34.1963H199.038V34.8303H199.672ZM203.394 38.3959L203.839 38.8476L204.028 38.6614V38.3959H203.394ZM201.941 39.8265L201.959 40.4602L202.209 40.4532L202.386 40.2782L201.941 39.8265ZM199.672 39.8903L199.097 39.6216L198.662 40.5528L199.689 40.524L199.672 39.8903ZM200.371 38.3959L200.945 38.6646L201.367 37.762H200.371V38.3959ZM199.672 38.3959H199.038V39.0299H199.672V38.3959ZM85.4787 52.029V51.3951H85.0614L84.8964 51.7784L85.4787 52.029ZM83.7797 55.9767L83.1974 55.7261L82.8167 56.6107H83.7797V55.9767ZM90.9006 52.029V52.663H91.9009L91.4739 51.7584L90.9006 52.029ZM87.1028 43.9837L87.6761 43.7131L87.0968 42.486L86.5274 43.7177L87.1028 43.9837ZM80.3567 58.5752V59.2092H80.7621L80.9322 58.8413L80.3567 58.5752ZM75.4846 58.5752L74.9163 58.2942L74.4637 59.2092H75.4846V58.5752ZM84.7042 39.9361L84.5388 39.3241L84.2627 39.3987L84.136 39.655L84.7042 39.9361ZM89.3265 38.6868L89.898 38.4125L89.67 37.9373L89.1611 38.0748L89.3265 38.6868ZM98.8709 58.5752V59.2092H99.8783L99.4425 58.301L98.8709 58.5752ZM93.9988 58.5752L93.4253 58.8454L93.5967 59.2092H93.9988V58.5752ZM92.7745 55.9767L93.348 55.7065L93.1766 55.3428H92.7745V55.9767ZM66.638 48.681H67.2719V47.853L66.4726 48.069L66.638 48.681ZM66.638 58.5752V59.2092H67.2719V58.5752H66.638ZM62.0157 49.9303L61.8503 49.3183L61.3817 49.4449V49.9303H62.0157ZM62.0157 54.4526V55.0866H62.6496V54.4526H62.0157ZM66.638 43.3091V43.9431H67.4925L67.2447 43.1253L66.638 43.3091ZM65.3887 39.1865L65.9954 39.0027L65.859 38.5526H65.3887V39.1865ZM69.8388 39.1865V38.5526H69.2049V39.1865H69.8388ZM74.4611 39.1865H75.0951V38.5526H74.4611V39.1865ZM69.8388 58.5752H69.2049V59.2092H69.8388V58.5752ZM74.4611 58.5752V59.2092H75.0951V58.5752H74.4611ZM99.9063 39.1865V38.5526H99.2723V39.1865H99.9063ZM104.529 39.1865H105.163V38.5526H104.529V39.1865ZM99.9063 58.5752H99.2723V59.2092H99.9063V58.5752ZM104.529 58.5752V59.2092H105.163V58.5752H104.529ZM114.346 39.1865V38.5526H113.712V39.1865H114.346ZM114.346 43.3091H113.712V43.9431H114.346V43.3091ZM134.609 39.1865L135.216 39.3704L135.464 38.5526H134.609V39.1865ZM133.36 43.3091V43.9431H133.83L133.967 43.493L133.36 43.3091ZM126.114 43.3091V42.6752H125.48V43.3091H126.114ZM126.114 58.5752V59.2092H126.748V58.5752H126.114ZM121.492 58.5752H120.858V59.2092H121.492V58.5752ZM121.492 43.3091H122.126V42.6752H121.492V43.3091ZM136.358 39.9361L136.192 39.3241L135.724 39.4507V39.9361H136.358ZM140.98 38.6868H141.614V37.8588L140.815 38.0748L140.98 38.6868ZM136.358 58.5752H135.724V59.2092H136.358V58.5752ZM140.98 58.5752V59.2092H141.614V58.5752H140.98ZM140.98 51.4544V50.8204H140.346V51.4544H140.98ZM151.124 51.4544H151.758V50.8204H151.124V51.4544ZM151.124 58.5752H150.49V59.2092H151.124V58.5752ZM155.746 58.5752V59.2092H156.38V58.5752H155.746ZM155.746 39.1865H156.38V38.5526H155.746V39.1865ZM151.124 39.1865V38.5526H150.49V39.1865H151.124ZM151.124 47.3318V47.9657H151.758V47.3318H151.124ZM140.98 47.3318H140.346V47.9657H140.98V47.3318ZM225.064 39.1865H225.698V38.5526H225.064V39.1865ZM220.442 39.1865V38.5526H219.808V39.1865H220.442ZM225.064 58.5752V59.2092H225.698V58.5752H225.064ZM220.442 58.5752L219.945 58.9691L220.136 59.2092H220.442V58.5752ZM210.298 45.7827L210.795 45.3888L209.664 43.9629V45.7827H210.298ZM210.298 58.5752V59.2092H210.932V58.5752H210.298ZM205.676 58.5752H205.042V59.2092H205.676V58.5752ZM205.676 39.9361L205.51 39.3241L205.042 39.4507V39.9361H205.676ZM210.298 38.6868L210.795 38.2929L210.535 37.966L210.133 38.0748L210.298 38.6868ZM220.442 51.4794L219.945 51.8733L221.076 53.2991V51.4794H220.442ZM247.646 48.681H248.28V47.853L247.48 48.069L247.646 48.681ZM247.646 58.5752V59.2092H248.28V58.5752H247.646ZM243.023 49.9303L242.858 49.3183L242.39 49.4449V49.9303H243.023ZM243.023 54.4526V55.0866H243.657V54.4526H243.023ZM247.646 43.3091V43.9431H248.5L248.252 43.1253L247.646 43.3091ZM246.396 39.1865L247.003 39.0027L246.867 38.5526H246.396V39.1865ZM182.428 34.1963H178.705V35.4642H182.428V34.1963ZM183.062 38.3959V34.8303H181.794V38.3959H183.062ZM181.42 40.2782L182.873 38.8476L181.983 37.9442L180.531 39.3748L181.42 40.2782ZM179.395 40.5051L180.993 40.4602L180.958 39.1928L179.359 39.2377L179.395 40.5051ZM180.011 50.8797V39.8714H178.743V50.8797H180.011ZM168.783 59.6339C171.843 59.6339 174.635 59.0024 176.682 57.5776C178.76 56.1311 180.011 53.9037 180.011 50.8797H178.743C178.743 53.5024 177.684 55.3352 175.957 56.5371C174.2 57.7608 171.695 58.366 168.783 58.366V59.6339ZM157.88 50.8797C157.88 53.8127 159.091 56.0352 161.101 57.5037C163.086 58.9539 165.8 59.6339 168.783 59.6339V58.366C165.97 58.366 163.549 57.7219 161.849 56.4799C160.174 55.2562 159.148 53.4185 159.148 50.8797H157.88ZM157.88 39.9361V50.8797H159.148V39.9361H157.88ZM162.971 38.0748L158.349 39.3241L158.68 40.5481L163.302 39.2988L162.971 38.0748ZM163.771 50.8797V38.6868H162.503V50.8797H163.771ZM169.008 54.1685C167.051 54.1685 165.738 53.8982 164.926 53.376C164.176 52.8943 163.771 52.1417 163.771 50.8797H162.503C162.503 52.4661 163.046 53.6749 164.24 54.4424C165.37 55.1694 166.993 55.4364 169.008 55.4364V54.1685ZM174.121 50.8797C174.121 52.1002 173.717 52.8598 172.974 53.3528C172.176 53.882 170.894 54.1685 169.008 54.1685V55.4364C170.97 55.4364 172.561 55.1482 173.675 54.4094C174.843 53.6344 175.389 52.4326 175.389 50.8797H174.121ZM174.121 39.1865V50.8797H175.389V39.1865H174.121ZM179.035 38.5526H174.755V39.8205H179.035V38.5526ZM178.831 38.1272L178.461 38.9178L179.609 39.4552L179.979 38.6646L178.831 38.1272ZM178.705 39.0299H179.405V37.762H178.705V39.0299ZM178.072 34.8303V38.3959H179.339V34.8303H178.072ZM203.394 34.1963H199.672V35.4642H203.394V34.1963ZM204.028 38.3959V34.8303H202.76V38.3959H204.028ZM202.386 40.2782L203.839 38.8476L202.949 37.9442L201.497 39.3748L202.386 40.2782ZM199.689 40.524L201.959 40.4602L201.924 39.1928L199.654 39.2566L199.689 40.524ZM199.797 38.1272L199.097 39.6216L200.246 40.159L200.945 38.6646L199.797 38.1272ZM199.672 39.0299H200.371V37.762H199.672V39.0299ZM199.038 34.8303V38.3959H200.305V34.8303H199.038ZM84.8964 51.7784L83.1974 55.7261L84.362 56.2274L86.0611 52.2797L84.8964 51.7784ZM90.9006 51.3951H85.4787V52.663H90.9006V51.3951ZM86.5295 44.2544L90.3273 52.2997L91.4739 51.7584L87.6761 43.7131L86.5295 44.2544ZM80.9322 58.8413L87.6782 44.2498L86.5274 43.7177L79.7813 58.3092L80.9322 58.8413ZM75.4846 59.2092H80.3567V57.9413H75.4846V59.2092ZM84.136 39.655L74.9163 58.2942L76.0528 58.8563L85.2724 40.2172L84.136 39.655ZM89.1611 38.0748L84.5388 39.3241L84.8696 40.5481L89.4919 39.2988L89.1611 38.0748ZM99.4425 58.301L89.898 38.4125L88.755 38.9611L98.2994 58.8495L99.4425 58.301ZM93.9988 59.2092H98.8709V57.9413H93.9988V59.2092ZM92.201 56.2469L93.4253 58.8454L94.5723 58.305L93.348 55.7065L92.201 56.2469ZM83.7797 56.6107H92.7745V55.3428H83.7797V56.6107ZM66.004 48.681V58.5752H67.2719V48.681H66.004ZM62.1811 50.5423L66.8034 49.293L66.4726 48.069L61.8503 49.3183L62.1811 50.5423ZM62.6496 54.4526V49.9303H61.3817V54.4526H62.6496ZM54.7449 55.0866H62.0157V53.8187H54.7449V55.0866ZM50.2382 48.756C50.2382 50.2545 50.5876 51.7992 51.3108 52.9918C52.0417 54.1971 53.1911 55.0866 54.7449 55.0866V53.8187C53.7502 53.8187 52.9632 53.2715 52.3949 52.3343C51.8188 51.3844 51.5061 50.0807 51.5061 48.756H50.2382ZM54.7449 42.6752C53.1761 42.6752 52.0219 43.4975 51.2881 44.6644C50.5675 45.8103 50.2382 47.2983 50.2382 48.756H51.5061C51.5061 47.4653 51.8014 46.2298 52.3614 45.3394C52.9081 44.4699 53.6903 43.9431 54.7449 43.9431V42.6752ZM66.638 42.6752H54.7449V43.9431H66.638V42.6752ZM64.782 39.3704L66.0313 43.493L67.2447 43.1253L65.9954 39.0027L64.782 39.3704ZM54.1952 39.8205H65.3887V38.5526H54.1952V39.8205ZM46.6339 49.0558C46.6339 46.7179 47.3037 44.3894 48.5832 42.6621C49.8504 40.9514 51.7178 39.8205 54.1952 39.8205V38.5526C51.2758 38.5526 49.0456 39.9077 47.5644 41.9074C46.0955 43.8903 45.3661 46.4965 45.3661 49.0558H46.6339ZM54.1952 57.9413C51.6389 57.9413 49.7738 56.8585 48.5309 55.2299C47.2737 53.5824 46.6339 51.3463 46.6339 49.0558H45.3661C45.3661 51.5624 46.0631 54.0861 47.523 55.9991C48.9972 57.9308 51.2298 59.2092 54.1952 59.2092V57.9413ZM66.638 57.9413H54.1952V59.2092H66.638V57.9413ZM69.8388 39.8205H74.4611V38.5526H69.8388V39.8205ZM70.4728 58.5752V39.1865H69.2049V58.5752H70.4728ZM74.4611 57.9413H69.8388V59.2092H74.4611V57.9413ZM73.8272 39.1865V58.5752H75.0951V39.1865H73.8272ZM99.9063 39.8205H104.529V38.5526H99.9063V39.8205ZM100.54 58.5752V39.1865H99.2723V58.5752H100.54ZM104.529 57.9413H99.9063V59.2092H104.529V57.9413ZM103.895 39.1865V58.5752H105.163V39.1865H103.895ZM113.712 39.1865V43.3091H114.98V39.1865H113.712ZM134.609 38.5526H114.346V39.8205H134.609V38.5526ZM133.967 43.493L135.216 39.3704L134.002 39.0027L132.753 43.1253L133.967 43.493ZM126.114 43.9431H133.36V42.6752H126.114V43.9431ZM126.748 58.5752V43.3091H125.48V58.5752H126.748ZM121.492 59.2092H126.114V57.9413H121.492V59.2092ZM120.858 43.3091V58.5752H122.126V43.3091H120.858ZM114.346 43.9431H121.492V42.6752H114.346V43.9431ZM136.523 40.5481L141.145 39.2988L140.815 38.0748L136.192 39.3241L136.523 40.5481ZM136.992 58.5752V39.9361H135.724V58.5752H136.992ZM140.98 57.9413H136.358V59.2092H140.98V57.9413ZM140.346 51.4544V58.5752H141.614V51.4544H140.346ZM151.124 50.8204H140.98V52.0883H151.124V50.8204ZM151.758 58.5752V51.4544H150.49V58.5752H151.758ZM155.746 57.9413H151.124V59.2092H155.746V57.9413ZM155.112 39.1865V58.5752H156.38V39.1865H155.112ZM151.124 39.8205H155.746V38.5526H151.124V39.8205ZM151.758 47.3318V39.1865H150.49V47.3318H151.758ZM140.98 47.9657H151.124V46.6978H140.98V47.9657ZM140.346 38.6868V47.3318H141.614V38.6868H140.346ZM184.953 48.8809C184.953 51.1333 185.538 52.8287 186.848 53.9372C188.134 55.0252 189.993 55.4364 192.283 55.4364V54.1685C190.1 54.1685 188.611 53.7677 187.667 52.9692C186.747 52.1913 186.221 50.926 186.221 48.8809H184.953ZM192.283 42.3254C189.993 42.3254 188.134 42.7366 186.848 43.8245C185.538 44.933 184.953 46.6285 184.953 48.8809H186.221C186.221 46.8358 186.747 45.5705 187.667 44.7925C188.611 43.9941 190.1 43.5933 192.283 43.5933V42.3254ZM199.488 48.8809C199.488 46.6837 198.893 44.9969 197.605 43.877C196.336 42.7733 194.512 42.3254 192.283 42.3254V43.5933C194.376 43.5933 195.837 44.0198 196.773 44.8337C197.691 45.6316 198.22 46.9055 198.22 48.8809H199.488ZM192.283 55.4364C194.512 55.4364 196.336 54.9884 197.605 53.8847C198.893 52.7649 199.488 51.0781 199.488 48.8809H198.22C198.22 50.8563 197.691 52.1302 196.773 52.928C195.837 53.742 194.376 54.1685 192.283 54.1685V55.4364ZM203.092 48.8809C203.092 52.2141 201.85 54.5521 199.901 56.0735C197.928 57.6124 195.164 58.366 192.058 58.366V59.6339C195.348 59.6339 198.418 58.8384 200.681 57.0731C202.966 55.2901 204.36 52.5686 204.36 48.8809H203.092ZM192.058 39.3957C195.165 39.3957 197.929 40.1436 199.901 41.6793C201.85 43.1971 203.092 45.5346 203.092 48.8809H204.36C204.36 45.1813 202.966 42.4592 200.68 40.6789C198.417 38.9166 195.347 38.1278 192.058 38.1278V39.3957ZM181.348 48.8809C181.348 45.6334 182.561 43.2904 184.462 41.7462C186.381 40.1874 189.063 39.3957 192.058 39.3957V38.1278C188.856 38.1278 185.866 38.9727 183.663 40.762C181.442 42.5658 180.081 45.2824 180.081 48.8809H181.348ZM192.058 58.366C189.063 58.366 186.381 57.5743 184.462 56.0156C182.561 54.4714 181.348 52.1284 181.348 48.8809H180.081C180.081 52.4794 181.442 55.196 183.663 56.9998C185.866 58.7891 188.856 59.6339 192.058 59.6339V58.366ZM225.064 38.5526H220.442V39.8205H225.064V38.5526ZM225.698 58.5752V39.1865H224.43V58.5752H225.698ZM220.442 59.2092H225.064V57.9413H220.442V59.2092ZM209.801 46.1766L219.945 58.9691L220.939 58.1813L210.795 45.3888L209.801 46.1766ZM210.932 58.5752V45.7827H209.664V58.5752H210.932ZM205.676 59.2092H210.298V57.9413H205.676V59.2092ZM205.042 39.9361V58.5752H206.31V39.9361H205.042ZM210.133 38.0748L205.51 39.3241L205.841 40.5481L210.463 39.2988L210.133 38.0748ZM220.939 51.0855L210.795 38.2929L209.801 39.0807L219.945 51.8733L220.939 51.0855ZM219.808 39.1865V51.4794H221.076V39.1865H219.808ZM247.012 48.681V58.5752H248.28V48.681H247.012ZM243.189 50.5423L247.811 49.293L247.48 48.069L242.858 49.3183L243.189 50.5423ZM243.657 54.4526V49.9303H242.39V54.4526H243.657ZM235.753 55.0866H243.023V53.8187H235.753V55.0866ZM231.246 48.756C231.246 50.2545 231.595 51.7992 232.319 52.9918C233.049 54.1971 234.199 55.0866 235.753 55.0866V53.8187C234.758 53.8187 233.971 53.2715 233.403 52.3343C232.827 51.3844 232.514 50.0807 232.514 48.756H231.246ZM235.753 42.6752C234.184 42.6752 233.03 43.4975 232.296 44.6644C231.575 45.8103 231.246 47.2983 231.246 48.756H232.514C232.514 47.4653 232.809 46.2298 233.369 45.3394C233.916 44.4699 234.698 43.9431 235.753 43.9431V42.6752ZM247.646 42.6752H235.753V43.9431H247.646V42.6752ZM245.79 39.3704L247.039 43.493L248.252 43.1253L247.003 39.0027L245.79 39.3704ZM235.203 39.8205H246.396V38.5526H235.203V39.8205ZM227.642 49.0558C227.642 46.7179 228.311 44.3894 229.591 42.6621C230.858 40.9514 232.726 39.8205 235.203 39.8205V38.5526C232.284 38.5526 230.053 39.9077 228.572 41.9074C227.103 43.8903 226.374 46.4965 226.374 49.0558H227.642ZM235.203 57.9413C232.647 57.9413 230.782 56.8585 229.539 55.2299C228.281 53.5824 227.642 51.3463 227.642 49.0558H226.374C226.374 51.5624 227.071 54.0861 228.531 55.9991C230.005 57.9308 232.238 59.2092 235.203 59.2092V57.9413ZM247.646 57.9413H235.203V59.2092H247.646V57.9413Z" fill="url(#paint2_linear_5031_765)" mask="url(#path-3-outside-1_5031_765)"/>
<path d="M102.092 15.3913L113.172 15.3916L110.396 16.1477H102.092L90.0628 21.5455H88L102.092 15.3913Z" fill="white" fill-opacity="0.5"/>
<g filter="url(#filter2_dd_5031_765)">
<path d="M132.103 17.6081C131.651 17.6081 131.25 17.5559 130.902 17.4515C130.561 17.3471 130.269 17.1557 130.025 16.8772C129.789 16.5988 129.608 16.202 129.482 15.6869C129.364 15.1648 129.305 14.4896 129.305 13.6612C129.305 12.8607 129.367 12.2064 129.493 11.6982C129.625 11.1831 129.813 10.7864 130.057 10.5079C130.3 10.2225 130.596 10.0241 130.944 9.91275C131.292 9.80137 131.685 9.74569 132.124 9.74569C132.472 9.74569 132.796 9.76657 133.095 9.80833C133.401 9.84314 133.676 9.88839 133.92 9.94407C134.164 9.9928 134.369 10.0485 134.536 10.1111V11.3119C134.411 11.2841 134.24 11.2562 134.024 11.2284C133.816 11.2005 133.575 11.1796 133.304 11.1657C133.032 11.1448 132.747 11.1344 132.448 11.1344C132.155 11.1344 131.905 11.1692 131.696 11.2388C131.494 11.3015 131.33 11.4233 131.205 11.6043C131.087 11.7783 130.996 12.0324 130.934 12.3665C130.878 12.7006 130.85 13.1357 130.85 13.6717C130.85 14.1868 130.875 14.6114 130.923 14.9455C130.979 15.2797 131.066 15.5407 131.184 15.7287C131.303 15.9096 131.463 16.0384 131.665 16.115C131.873 16.1846 132.134 16.2194 132.448 16.2194C132.977 16.2194 133.405 16.209 133.732 16.1881C134.066 16.1672 134.334 16.1428 134.536 16.115V17.3053C134.348 17.368 134.132 17.4237 133.889 17.4724C133.645 17.5141 133.377 17.5455 133.085 17.5664C132.792 17.5942 132.465 17.6081 132.103 17.6081ZM138.793 10.6541V9.81878H140.077C140.314 9.81878 140.498 9.73524 140.63 9.56818C140.763 9.40112 140.829 9.10179 140.829 8.67021H141.894C141.894 9.10876 141.828 9.47769 141.695 9.77701C141.57 10.0694 141.393 10.2886 141.163 10.4348C140.933 10.581 140.665 10.6541 140.359 10.6541H138.793ZM138.532 17.6081C138.003 17.6081 137.54 17.5594 137.143 17.4619C136.746 17.3575 136.412 17.1696 136.141 16.8981C135.876 16.6197 135.678 16.2229 135.545 15.7078C135.413 15.1927 135.347 14.5209 135.347 13.6926C135.347 12.8642 135.413 12.1925 135.545 11.6774C135.685 11.1553 135.886 10.755 136.151 10.4766C136.416 10.1981 136.746 10.0067 137.143 9.90231C137.54 9.79789 138.003 9.74569 138.532 9.74569C139.061 9.74569 139.524 9.79789 139.92 9.90231C140.317 10.0067 140.648 10.1981 140.912 10.4766C141.177 10.755 141.375 11.1553 141.507 11.6774C141.64 12.1925 141.706 12.8642 141.706 13.6926C141.706 14.5209 141.64 15.1927 141.507 15.7078C141.375 16.2229 141.177 16.6197 140.912 16.8981C140.648 17.1696 140.317 17.3575 139.92 17.4619C139.524 17.5594 139.061 17.6081 138.532 17.6081ZM138.532 16.2194C138.845 16.2194 139.106 16.1846 139.315 16.115C139.524 16.0454 139.687 15.9236 139.806 15.7495C139.931 15.5686 140.021 15.3145 140.077 14.9873C140.133 14.6532 140.161 14.2216 140.161 13.6926C140.161 13.1357 140.133 12.6902 140.077 12.3561C140.021 12.0219 139.931 11.7679 139.806 11.5938C139.687 11.4128 139.524 11.291 139.315 11.2284C139.106 11.1657 138.845 11.1344 138.532 11.1344C138.232 11.1344 137.978 11.1657 137.769 11.2284C137.561 11.291 137.39 11.4128 137.258 11.5938C137.133 11.7679 137.039 12.0219 136.976 12.3561C136.92 12.6902 136.892 13.1357 136.892 13.6926C136.892 14.2216 136.917 14.6532 136.965 14.9873C137.021 15.3145 137.112 15.5686 137.237 15.7495C137.362 15.9236 137.529 16.0454 137.738 16.115C137.954 16.1846 138.218 16.2194 138.532 16.2194ZM148.19 17.6081C147.738 17.6081 147.338 17.5559 146.99 17.4515C146.649 17.3471 146.356 17.1557 146.113 16.8772C145.876 16.5988 145.695 16.202 145.57 15.6869C145.451 15.1648 145.392 14.4896 145.392 13.6612C145.392 12.8607 145.455 12.2064 145.58 11.6982C145.712 11.1831 145.9 10.7864 146.144 10.5079C146.387 10.2225 146.683 10.0241 147.031 9.91275C147.379 9.80137 147.773 9.74569 148.211 9.74569C148.559 9.74569 148.883 9.76657 149.182 9.80833C149.489 9.84314 149.764 9.88839 150.007 9.94407C150.251 9.9928 150.456 10.0485 150.623 10.1111V11.3119C150.498 11.2841 150.327 11.2562 150.112 11.2284C149.903 11.2005 149.663 11.1796 149.391 11.1657C149.12 11.1448 148.834 11.1344 148.535 11.1344C148.243 11.1344 147.992 11.1692 147.783 11.2388C147.581 11.3015 147.418 11.4233 147.292 11.6043C147.174 11.7783 147.084 12.0324 147.021 12.3665C146.965 12.7006 146.937 13.1357 146.937 13.6717C146.937 14.1868 146.962 14.6114 147.01 14.9455C147.066 15.2797 147.153 15.5407 147.272 15.7287C147.39 15.9096 147.55 16.0384 147.752 16.115C147.961 16.1846 148.222 16.2194 148.535 16.2194C149.064 16.2194 149.492 16.209 149.819 16.1881C150.153 16.1672 150.421 16.1428 150.623 16.115V17.3053C150.435 17.368 150.219 17.4237 149.976 17.4724C149.732 17.5141 149.464 17.5455 149.172 17.5664C148.88 17.5942 148.552 17.6081 148.19 17.6081ZM151.244 17.5455L153.666 9.81878H155.619L158.041 17.5455H156.433L155.943 15.927H153.311L152.831 17.5455H151.244ZM153.677 14.5383H155.577L154.627 11.1448L153.677 14.5383ZM154.136 8.14814H155.191L156.214 9.28626H155.316L154.637 8.83728L153.906 9.28626H152.998L154.136 8.14814ZM156.078 7.09355H157.331L156.517 8.39873H155.608L156.078 7.09355ZM161.506 17.5977C161.081 17.5977 160.684 17.5629 160.315 17.4933C159.946 17.4167 159.623 17.2879 159.344 17.1069C159.073 16.919 158.861 16.6614 158.707 16.3343C158.561 16.0001 158.488 15.5755 158.488 15.0604V9.81878H160.033V15.05C160.033 15.3354 160.089 15.5616 160.201 15.7287C160.319 15.8957 160.486 16.0175 160.702 16.0941C160.924 16.1707 161.192 16.209 161.506 16.209C161.812 16.209 162.073 16.1707 162.289 16.0941C162.512 16.0175 162.679 15.8957 162.79 15.7287C162.908 15.5616 162.968 15.3354 162.968 15.05V9.81878H164.523V15.0604C164.523 15.5755 164.447 16.0001 164.294 16.3343C164.14 16.6614 163.928 16.919 163.657 17.1069C163.385 17.2879 163.065 17.4167 162.696 17.4933C162.334 17.5629 161.937 17.5977 161.506 17.5977Z" fill="url(#paint3_linear_5031_765)"/>
</g>
<path d="M192.577 15.3913L181.497 15.3916L184.272 16.1477H192.577L204.606 21.5455H206.669L192.577 15.3913Z" fill="white" fill-opacity="0.5"/>
</g>
</g>
<defs>
<filter id="filter0_d_5031_765" x="0" y="0" width="296" height="67.6339" filterUnits="userSpaceOnUse" color-interpolation-filters="sRGB">
<feFlood flood-opacity="0" result="BackgroundImageFix"/>
<feColorMatrix in="SourceAlpha" type="matrix" values="0 0 0 0 0 0 0 0 0 0 0 0 0 0 0 0 0 0 127 0" result="hardAlpha"/>
<feOffset dy="4"/>
<feGaussianBlur stdDeviation="2"/>
<feComposite in2="hardAlpha" operator="out"/>
<feColorMatrix type="matrix" values="0 0 0 0 0 0 0 0 0 0 0 0 0 0 0 0 0 0 0.25 0"/>
<feBlend mode="normal" in2="BackgroundImageFix" result="effect1_dropShadow_5031_765"/>
<feBlend mode="normal" in="SourceGraphic" in2="effect1_dropShadow_5031_765" result="shape"/>
</filter>
<filter id="filter1_d_5031_765" x="41.3662" y="7.09357" width="211.134" height="60.5403" filterUnits="userSpaceOnUse" color-interpolation-filters="sRGB">
<feFlood flood-opacity="0" result="BackgroundImageFix"/>
<feColorMatrix in="SourceAlpha" type="matrix" values="0 0 0 0 0 0 0 0 0 0 0 0 0 0 0 0 0 0 127 0" result="hardAlpha"/>
<feOffset dy="4"/>
<feGaussianBlur stdDeviation="2"/>
<feComposite in2="hardAlpha" operator="out"/>
<feColorMatrix type="matrix" values="0 0 0 0 0 0 0 0 0 0 0 0 0 0 0 0 0 0 0.25 0"/>
<feBlend mode="normal" in2="BackgroundImageFix" result="effect1_dropShadow_5031_765"/>
<feBlend mode="normal" in="SourceGraphic" in2="effect1_dropShadow_5031_765" result="shape"/>
</filter>
<filter id="filter2_dd_5031_765" x="125.948" y="3.73738" width="41.9311" height="17.2269" filterUnits="userSpaceOnUse" color-interpolation-filters="sRGB">
<feFlood flood-opacity="0" result="BackgroundImageFix"/>
<feColorMatrix in="SourceAlpha" type="matrix" values="0 0 0 0 0 0 0 0 0 0 0 0 0 0 0 0 0 0 127 0" result="hardAlpha"/>
<feOffset/>
<feGaussianBlur stdDeviation="1.67809"/>
<feComposite in2="hardAlpha" operator="out"/>
<feColorMatrix type="matrix" values="0 0 0 0 0.925 0 0 0 0 0.289062 0 0 0 0 0.904486 0 0 0 1 0"/>
<feBlend mode="normal" in2="BackgroundImageFix" result="effect1_dropShadow_5031_765"/>
<feColorMatrix in="SourceAlpha" type="matrix" values="0 0 0 0 0 0 0 0 0 0 0 0 0 0 0 0 0 0 127 0" result="hardAlpha"/>
<feOffset/>
<feGaussianBlur stdDeviation="0.559365"/>
<feComposite in2="hardAlpha" operator="out"/>
<feColorMatrix type="matrix" values="0 0 0 0 0.980246 0 0 0 0 0.457958 0 0 0 0 0.963398 0 0 0 1 0"/>
<feBlend mode="normal" in2="effect1_dropShadow_5031_765" result="effect2_dropShadow_5031_765"/>
<feBlend mode="normal" in="SourceGraphic" in2="effect2_dropShadow_5031_765" result="shape"/>
</filter>
<linearGradient id="paint0_linear_5031_765" x1="186.406" y1="26.1394" x2="197.092" y2="26.6423" gradientUnits="userSpaceOnUse">
<stop offset="0.00270832" stop-color="#F07DED"/>
<stop offset="0.520399" stop-color="#EC4AE7"/>
<stop offset="0.995535" stop-color="#F281EF"/>
</linearGradient>
<linearGradient id="paint1_linear_5031_765" x1="86.0156" y1="25.5455" x2="96.7012" y2="26.0484" gradientUnits="userSpaceOnUse">
<stop offset="0.00270832" stop-color="#F07DED"/>
<stop offset="0.520399" stop-color="#EC4AE7"/>
<stop offset="0.995535" stop-color="#F281EF"/>
</linearGradient>
<linearGradient id="paint2_linear_5031_765" x1="46" y1="34.8303" x2="234.536" y2="97.1325" gradientUnits="userSpaceOnUse">
<stop offset="0.00270832" stop-color="#F07DED"/>
<stop offset="0.520399" stop-color="#EC4AE7"/>
<stop offset="0.995535" stop-color="#F281EF"/>
</linearGradient>
<linearGradient id="paint3_linear_5031_765" x1="147.335" y1="7.54547" x2="147.335" y2="21.5455" gradientUnits="userSpaceOnUse">
<stop stop-color="#FFC6FD"/>
<stop offset="0.489583" stop-color="#FF9EFC"/>
<stop offset="1" stop-color="#FFC6FD"/>
</linearGradient>
</defs>
</svg>
