<svg width="296" height="100" viewBox="0 0 296 100" fill="none" xmlns="http://www.w3.org/2000/svg">
<g clip-path="url(#clip0_4834_8586)">
<path d="M1.14673 39.9466C1.14673 40.4114 1.52601 40.7882 1.99387 40.7882H19.6409V79.1977C19.6409 79.6625 20.0201 80.0393 20.488 80.0393H32.451C32.9188 80.0393 33.2981 79.6625 33.2981 79.1977V40.7882H51.2037C51.577 40.7882 51.9062 40.5455 52.0144 40.1907L55.2477 29.5909C55.3254 29.3359 55.2771 29.0594 55.1173 28.8454C54.9575 28.6315 54.7051 28.5052 54.4369 28.5052H1.99387C1.52601 28.5052 1.14673 28.8821 1.14673 29.3468V39.9466ZM58.7415 30.4617C58.3719 30.5609 58.1153 30.8939 58.1153 31.2741V79.1977C58.1153 79.6625 58.4946 80.0393 58.9624 80.0393H70.9254C71.3933 80.0393 71.7725 79.6625 71.7725 79.1977V61.7307H96.3322V79.1977C96.3322 79.6625 96.7114 80.0393 97.1793 80.0393H109.142C109.61 80.0393 109.99 79.6625 109.99 79.1977V29.3468C109.99 28.8821 109.61 28.5052 109.142 28.5052H97.1793C96.7114 28.5052 96.3322 28.8821 96.3322 29.3468V49.4478H71.7725V28.0621C71.7725 27.8001 71.6498 27.5531 71.4404 27.3939C71.2311 27.2346 70.959 27.1813 70.7043 27.2496L58.7415 30.4617ZM166.421 67.7564H130.668V60.4458H160.924C161.393 60.4458 161.772 60.0691 161.772 59.6043V49.0046C161.772 48.5397 161.393 48.163 160.924 48.163H130.668V40.7882H163.188C163.561 40.7882 163.89 40.5455 163.998 40.1907L167.232 29.5909C167.31 29.3359 167.261 29.0594 167.102 28.8454C166.941 28.6315 166.689 28.5052 166.421 28.5052H117.858C117.39 28.5052 117.011 28.8821 117.011 29.3468V79.1977C117.011 79.6625 117.39 80.0393 117.858 80.0393H163.188C163.561 80.0393 163.89 79.7966 163.998 79.4418L167.232 68.8421C167.31 68.587 167.261 68.3105 167.102 68.0965C166.941 67.8826 166.689 67.7564 166.421 67.7564ZM193.402 28.5052C192.934 28.5052 192.555 28.8821 192.555 29.3468V79.1977C192.555 79.6625 192.934 80.0393 193.402 80.0393H237.439C237.812 80.0393 238.141 79.7966 238.249 79.4418L241.482 68.8421C241.56 68.587 241.512 68.3105 241.352 68.0965C241.192 67.8826 240.94 67.7564 240.672 67.7564H206.212V29.3468C206.212 28.8821 205.833 28.5052 205.365 28.5052H193.402ZM293.409 67.7564H257.656V60.4458H287.912C288.38 60.4458 288.76 60.0691 288.76 59.6043V49.0046C288.76 48.5397 288.38 48.163 287.912 48.163H257.656V40.7882H290.176C290.549 40.7882 290.878 40.5455 290.986 40.1907L294.219 29.5909C294.298 29.3359 294.249 29.0594 294.09 28.8454C293.929 28.6315 293.677 28.5052 293.409 28.5052H244.846C244.378 28.5052 243.999 28.8821 243.999 29.3468V79.1977C243.999 79.6625 244.378 80.0393 244.846 80.0393H290.176C290.549 80.0393 290.878 79.7966 290.986 79.4418L294.219 68.8421C294.298 68.587 294.249 68.3105 294.09 68.0965C293.929 67.8826 293.677 67.7564 293.409 67.7564Z" stroke="#FF70FF" stroke-width="1.7" stroke-linejoin="round"/>
<path d="M173.645 21.4337C174.113 21.4337 174.492 21.057 174.492 20.5921C174.492 20.0293 175.091 18.9613 177.24 18.9613H179.244C182.659 18.9613 185.282 17.8965 187.057 16.2185C188.828 14.545 189.701 12.3119 189.701 10.0843C189.701 7.81838 188.799 5.56904 187.018 3.88942C185.231 2.20538 182.61 1.13867 179.244 1.13867H166.594C166.326 1.13867 166.073 1.26484 165.913 1.47883C165.754 1.69281 165.705 1.96934 165.783 2.22433L167.511 7.89032C167.62 8.24517 167.949 8.48783 168.322 8.48783H179.176C179.977 8.48783 180.492 8.73524 180.801 9.02568C181.115 9.3214 181.267 9.70775 181.267 10.0843C181.267 10.4717 181.112 10.8451 180.8 11.1281C180.488 11.41 179.969 11.6465 179.176 11.6465H177.17C174.06 11.6465 171.622 12.7285 169.962 14.4204C168.311 16.1031 167.475 18.3445 167.475 20.5921C167.475 21.057 167.854 21.4337 168.322 21.4337H173.645Z" stroke="#FF70FF" stroke-width="1.7" stroke-linejoin="round"/>
<path d="M275.657 86.7232C275.657 86.2584 275.278 85.8816 274.81 85.8816H262.847C262.379 85.8816 262 86.2584 262 86.7232V97.3871C262 97.852 262.379 98.2287 262.847 98.2287H274.81C275.278 98.2287 275.657 97.852 275.657 97.3871V86.7232Z" stroke="#FF70FF" stroke-width="1.7" stroke-linejoin="round"/>
<path d="M122.449 20.005C122.211 20.2473 122.142 20.6076 122.275 20.9196C122.407 21.2315 122.714 21.4344 123.055 21.4344H133.078C133.287 21.4344 133.487 21.3582 133.642 21.2204L142.008 13.7985L150.562 21.2265C150.717 21.3604 150.915 21.4344 151.119 21.4344H161.596C161.926 21.4344 162.227 21.2431 162.365 20.9445C162.503 20.646 162.454 20.2948 162.239 20.0452L147.431 2.8756C147.209 2.61796 146.852 2.51807 146.527 2.62222L136.504 5.83426C136.373 5.87629 136.255 5.94948 136.158 6.04747L122.449 20.005Z" stroke="#FF70FF" stroke-width="1.7" stroke-linejoin="round"/>
<path d="M248.952 20.005C248.714 20.2473 248.645 20.6076 248.778 20.9196C248.909 21.2315 249.217 21.4344 249.558 21.4344H259.581C259.789 21.4344 259.99 21.3582 260.145 21.2204L268.511 13.7985L277.065 21.2265C277.22 21.3604 277.417 21.4344 277.622 21.4344H288.098C288.429 21.4344 288.73 21.2431 288.867 20.9445C289.006 20.646 288.957 20.2948 288.742 20.0452L273.933 2.8756C273.711 2.61796 273.355 2.51807 273.03 2.62222L263.006 5.83426C262.876 5.87629 262.756 5.94948 262.661 6.04747L248.952 20.005Z" stroke="#FF70FF" stroke-width="1.7" stroke-linejoin="round"/>
</g>
<defs>
<clipPath id="clip0_4834_8586">
<rect width="296" height="100" fill="white"/>
</clipPath>
</defs>
</svg>
