<svg width="40" height="21" viewBox="0 0 40 21" fill="none" xmlns="http://www.w3.org/2000/svg">
<path id="^" d="M1.68899 17.7902C1.45022 18.0349 1.3813 18.3989 1.51408 18.7139C1.64685 19.029 1.95547 19.2338 2.29736 19.2338H11.5974C11.8062 19.2338 12.0078 19.1569 12.1636 19.0178L19.8834 12.1234L27.778 19.0238C27.9329 19.1592 28.1316 19.2338 28.3374 19.2338H38.0574C38.3893 19.2338 38.6908 19.0406 38.8296 18.7391C38.9683 18.4375 38.9188 18.0828 38.7028 17.8308L24.9628 1.79461C24.7399 1.5344 24.3825 1.43351 24.0564 1.5387L14.7564 4.5387C14.6248 4.58116 14.5056 4.65507 14.409 4.75404L1.68899 17.7902Z" stroke="#FF70FF" stroke-width="1.7" stroke-linejoin="round"/>
</svg>
